<svg width="512" height="512" viewBox="0 0 512 512" fill="none" xmlns="http://www.w3.org/2000/svg">
<g clip-path="url(#clip0_483_2627)">
<path d="M256 512C114.839 512 0 397.161 0 256C0 114.839 114.839 0 256 0C397.161 0 512 114.839 512 256C512 397.161 397.161 512 256 512ZM256 26.048C129.204 26.048 26.048 129.204 26.048 256C26.048 382.796 129.204 485.952 256 485.952C382.796 485.952 485.952 382.796 485.952 256C485.952 129.204 382.796 26.048 256 26.048Z" fill="#95BA32"/>
<path d="M171.303 210.182H202.644L228.804 310.168H229.322L254.445 210.182H284.232L308.319 310.168H308.837L336.033 210.182H366.074L324.117 344.1H293.812L268.943 244.632H268.424L243.819 344.1H212.732L171.293 210.182H171.303Z" fill="#95BA32"/>
<path d="M160.413 359.685V128.158H123.037V397.06H123.23H160.413H359.887V359.685H160.413Z" fill="#95BA32"/>
<path d="M338.899 135.929C340.9 132.242 343.43 127.457 344.527 123.881C344.74 123.19 345.218 121.849 345.055 121.412C345.035 121.351 345.218 121.209 345.218 121.148C345.218 121.036 345.096 120.823 345.106 120.701C345.106 120.66 345.167 120.599 345.187 120.569C345.329 120.305 345.136 120.061 345.238 119.858C345.319 119.695 345.177 119.726 345.177 119.634C345.187 119.085 345.086 117.948 344.669 117.673C344.527 117.582 344.669 117.521 344.618 117.46C344.374 117.125 343.521 116.566 343.186 116.424C343.084 116.373 342.983 116.485 342.962 116.485C342.84 116.444 342.688 116.251 342.556 116.241C342.465 116.241 342.221 116.363 342.119 116.353C341.875 116.353 341.723 116.16 341.489 116.17C341.337 116.18 341.134 116.403 340.971 116.424C340.89 116.434 340.778 116.271 340.697 116.261C340.646 116.261 340.463 116.444 340.402 116.454C340.006 116.505 339.62 116.444 339.254 116.525C338.086 116.769 337.101 117.196 336.034 117.582C335.699 117.704 334.774 117.856 334.642 118.059C334.479 118.303 333.606 118.415 333.464 118.476C333.271 118.557 333.128 118.649 332.945 118.73C332.61 118.852 332.183 118.892 331.848 119.014C331.483 119.146 331.178 119.38 330.812 119.512C330.477 119.634 330.081 119.665 329.725 119.797C329.359 119.929 329.044 120.162 328.689 120.294C328.364 120.416 327.927 120.457 327.592 120.579C326.85 120.843 326.169 121.127 325.468 121.361C325.326 121.412 325.184 121.422 325.031 121.473C324.442 121.686 323.965 121.849 323.426 122.011C322.664 122.225 321.963 122.357 321.242 122.57C320.511 122.783 319.8 122.976 319.058 123.129C318.052 123.342 317.107 123.637 316.305 123.728C315.675 123.799 315.208 123.931 314.639 124.043C314.293 124.114 313.887 124.267 313.552 124.328C313.359 124.358 313.166 124.328 312.983 124.358C312.343 124.429 311.886 124.571 311.317 124.663C310.931 124.724 310.677 124.805 310.443 124.897C310.372 124.917 310.24 124.724 310.169 124.734C309.772 124.795 309.458 124.968 309.071 125.018C308.868 125.049 308.696 125.029 308.503 125.049C308.056 125.1 307.558 125.242 307.273 125.252C307.131 125.252 307.04 125.211 306.918 125.232C306.501 125.283 305.729 125.628 305.465 125.486C305.302 125.394 305.363 125.526 305.252 125.537C304.561 125.608 303.829 125.669 303.311 125.689C302.956 125.699 302.885 125.78 302.651 125.862C302.59 125.882 302.448 125.689 302.377 125.699C302.204 125.719 302.031 125.923 301.858 125.943C301.777 125.953 301.665 125.791 301.584 125.78C301.533 125.78 301.351 125.973 301.279 125.973C301.198 125.973 301.086 125.821 301.005 125.811C300.954 125.811 300.771 126.004 300.711 126.004C300.619 126.004 300.528 125.851 300.436 125.841C300.375 125.841 300.203 126.034 300.131 126.034C300.07 126.034 299.816 126.034 299.776 126.004C299.573 125.902 299.39 126.136 299.207 126.034C299.044 125.943 299.095 126.085 298.994 126.095C298.587 126.126 298.465 126.085 298.201 126.177C298.14 126.197 297.998 126.014 297.927 126.014C297.764 126.024 297.581 126.238 297.409 126.268C297.328 126.278 297.216 126.116 297.134 126.105C297.084 126.105 296.901 126.298 296.83 126.298C296.738 126.298 296.647 126.146 296.555 126.136C296.505 126.136 296.332 126.329 296.261 126.329C296.169 126.329 296.078 126.177 295.987 126.166C295.926 126.166 295.763 126.359 295.692 126.359C295.6 126.359 295.509 126.207 295.418 126.197C295.357 126.197 295.194 126.39 295.113 126.39C294.717 126.38 294.473 126.207 294.259 126.248C294.077 126.298 293.873 126.248 293.691 126.288C293.508 126.329 293.294 126.288 293.111 126.319C292.929 126.359 292.715 126.319 292.543 126.349C292.339 126.4 292.187 126.38 291.964 126.39C291.75 126.39 291.598 126.41 291.395 126.42C291.181 126.42 291.019 126.441 290.816 126.451C290.602 126.461 290.45 126.471 290.247 126.492C290.115 126.492 290.023 126.461 289.891 126.471C289.718 126.471 289.596 126.573 289.454 126.573C289.221 126.573 289.058 126.38 288.824 126.39C288.824 126.39 288.621 126.441 288.611 126.441C288.428 126.481 288.215 126.431 288.042 126.471C287.839 126.512 287.676 126.491 287.463 126.502C287.25 126.512 287.097 126.532 286.884 126.532C286.752 126.532 286.65 126.512 286.528 126.512C286.193 126.512 285.807 126.624 285.604 126.512C285.441 126.431 285.482 126.573 285.38 126.573C284.557 126.573 283.44 126.512 282.81 126.532C282.678 126.532 282.576 126.512 282.455 126.512C282.119 126.512 281.723 126.624 281.53 126.512C281.327 126.4 281.144 126.644 280.961 126.542C280.799 126.461 280.839 126.603 280.738 126.603C280.494 126.603 280.341 126.42 280.108 126.42L279.884 126.471C279.681 126.522 279.529 126.491 279.315 126.502C278.198 126.542 276.715 126.441 275.81 126.471C275.313 126.481 275.038 126.359 274.612 126.309C274.551 126.309 274.388 126.512 274.317 126.502C274.073 126.491 273.921 126.319 273.687 126.309C273.647 126.309 273.545 126.359 273.464 126.359C273.25 126.37 273.098 126.38 272.885 126.39C272.397 126.41 272.092 126.278 271.686 126.238C271.625 126.238 271.462 126.431 271.381 126.431C271.208 126.431 271.026 126.339 270.893 126.329C270.548 126.288 270.375 126.238 270.04 126.197C269.979 126.197 269.827 126.39 269.745 126.39C269.491 126.39 269.349 126.207 269.116 126.207C269.075 126.207 268.973 126.258 268.892 126.268C268.516 126.278 268.232 126.268 267.957 126.268C267.602 126.268 267.46 126.187 267.114 126.146C267.053 126.146 266.891 126.339 266.82 126.339C266.566 126.339 266.423 126.177 266.19 126.156C266.169 126.156 266.037 126.207 265.966 126.207C265.844 126.207 265.733 126.187 265.611 126.187C265.275 126.177 264.889 126.298 264.686 126.187C264.493 126.085 263.66 126.095 263.619 126.105C263.416 126.156 263.254 126.126 263.04 126.136C262.177 126.166 261.151 126.085 260.46 126.095C260.104 126.095 259.962 126.004 259.617 125.963C259.556 125.963 259.393 126.166 259.322 126.156C259.078 126.156 258.936 125.973 258.692 125.973C258.642 125.973 258.56 126.034 258.479 126.034C258.266 126.034 258.113 126.055 257.91 126.065C257.656 126.065 257.321 126.075 257.199 126.014C256.996 125.912 256.813 126.136 256.63 126.045C256.467 125.953 256.508 126.095 256.417 126.095C256.173 126.095 256.02 125.912 255.787 125.912C255.807 125.912 255.573 125.963 255.563 125.963C255.37 126.014 255.208 125.984 254.994 125.994C254.781 126.004 254.619 126.024 254.415 126.024C254.283 126.024 254.182 125.994 254.06 126.004C253.725 126.004 253.328 126.105 253.125 126.004C252.922 125.902 252.577 125.953 252.414 125.953C252.363 125.953 252.282 126.004 252.201 126.014C252.069 126.014 251.967 125.984 251.845 125.994C251.439 125.994 250.595 126.156 250.342 126.034C250.179 125.943 250.22 126.085 250.118 126.095C249.762 126.105 249.61 125.994 249.275 125.963C249.224 125.963 249.051 126.156 248.98 126.156C248.889 126.156 248.787 126.004 248.706 125.994C248.645 125.984 248.482 126.187 248.401 126.187C248.167 126.197 248.005 126.004 247.771 126.004C247.792 126.004 247.558 126.065 247.558 126.065C247.365 126.105 247.162 126.055 246.969 126.095C246.776 126.146 246.613 126.116 246.39 126.126C246.176 126.126 246.024 126.156 245.821 126.166C245.607 126.166 245.455 126.187 245.252 126.197C245.038 126.197 244.876 126.217 244.673 126.227C244.459 126.227 244.307 126.248 244.104 126.258C243.89 126.258 243.738 126.288 243.535 126.288C243.322 126.288 243.169 126.309 242.956 126.319C242.742 126.319 242.59 126.349 242.387 126.359C242.174 126.359 242.021 126.38 241.818 126.39C241.462 126.4 241.391 126.471 241.158 126.563C241.097 126.583 240.954 126.4 240.883 126.4C240.822 126.4 240.65 126.573 240.589 126.593C240.518 126.613 240.386 126.431 240.314 126.431C240.253 126.431 240.081 126.593 240.02 126.624C239.949 126.644 239.817 126.451 239.746 126.461C239.583 126.481 239.4 126.695 239.227 126.715C239.136 126.725 239.034 126.563 238.943 126.552C238.892 126.552 238.709 126.745 238.648 126.745C238.587 126.756 238.333 126.745 238.293 126.725C238.13 126.644 238.191 126.766 238.079 126.776C236.83 126.908 235.814 127.02 234.686 127.182C234.341 127.233 234.016 127.264 233.67 127.325C233.305 127.396 232.929 127.548 232.573 127.609C232.197 127.68 231.781 127.609 231.425 127.67C231.029 127.741 230.704 127.863 230.328 127.954C229.627 128.127 228.845 128.34 228.144 128.523C227.382 128.716 226.579 128.899 225.96 129.082C225.787 129.133 225.746 129.336 225.574 129.417C225.421 129.478 225.157 129.397 225.005 129.448C224.751 129.549 224.365 129.712 224.273 129.753C224.151 129.814 224.09 129.905 223.968 129.946C223.582 130.088 222.739 130.179 222.577 130.423C222.465 130.575 222.455 130.433 222.353 130.474C221.439 130.86 220.626 131.297 219.773 131.723C219.478 131.876 219.072 131.977 218.95 132.17C218.818 132.363 218.554 132.242 218.432 132.424C218.33 132.567 218.279 132.435 218.218 132.485C218.005 132.628 217.964 132.831 217.751 132.953C217.66 133.004 217.416 133.014 217.314 133.064C217.253 133.095 217.04 133.217 217.009 133.257C216.908 133.41 216.877 133.257 216.796 133.318C216.583 133.44 216.532 133.654 216.339 133.776C216.329 133.786 216.176 133.806 216.115 133.837C216.004 133.887 215.912 133.969 215.811 134.03C214.622 134.832 213.179 135.95 212.194 136.712C212.163 136.742 212.133 136.813 212.113 136.854C212.021 136.986 211.94 136.864 211.889 136.915C211.595 137.148 211.259 137.565 210.965 137.849C210.741 138.053 210.355 138.307 210.284 138.368C210.081 138.561 209.979 138.723 209.817 138.845C209.542 139.058 209.481 139.14 209.278 139.444C209.197 139.566 209.085 139.475 209.055 139.505C208.689 139.871 208.587 140.034 208.354 140.389C208.273 140.501 208.151 140.43 208.13 140.44C207.826 140.775 207.572 141.253 207.267 141.598C207.125 141.761 207.013 141.832 206.799 142.065C206.027 142.939 205.347 143.843 204.605 144.849C203.193 146.779 202.065 148.903 201.263 150.843C200.785 151.971 200.511 153.037 200.247 154.135C200.033 155.029 199.82 156.044 199.698 156.959C225.777 159.925 290.917 159.915 325.468 133.349C325.468 133.349 277.751 172.309 199.729 161.307C199.769 161.673 199.79 161.977 199.901 162.262C199.922 162.323 199.729 162.465 199.739 162.536C199.78 162.78 199.993 163.034 200.044 163.268C200.298 164.456 200.582 165.797 200.948 166.762C201.039 167.026 201.141 167.24 201.253 167.494C201.354 167.717 201.446 168.154 201.557 168.235C201.71 168.337 201.568 168.378 201.608 168.459C201.7 168.601 201.862 168.672 201.943 168.835C202.055 169.068 202.015 169.292 202.116 169.495C202.279 169.82 202.492 169.901 202.644 170.176C202.715 170.298 202.583 170.491 202.756 170.613C202.98 170.765 203.183 171.253 203.335 171.507C203.447 171.689 203.416 171.74 203.447 171.943C203.457 172.004 203.691 172.055 203.731 172.106C203.731 172.126 203.64 172.218 203.65 172.238C203.65 172.289 203.884 172.35 203.924 172.401C204.056 172.563 204.148 172.736 204.178 172.909C204.189 172.97 204.422 173.02 204.453 173.071C204.463 173.091 204.371 173.183 204.371 173.203C204.371 173.264 204.615 173.315 204.646 173.366C204.656 173.386 204.554 173.477 204.554 173.508C204.554 173.518 204.9 173.894 204.89 173.884C205.032 174.026 205.062 174.016 205.083 174.178C205.083 174.239 205.326 174.29 205.357 174.341C205.367 174.361 205.276 174.453 205.276 174.473C205.286 174.524 205.509 174.585 205.55 174.636C206.413 175.733 207.409 176.81 208.334 177.765C208.516 177.948 208.709 178.09 208.943 178.303C208.943 178.313 208.852 178.425 208.862 178.435C208.862 178.486 209.095 178.567 209.136 178.608C209.644 179.055 210.05 179.461 210.487 179.776C210.833 180.03 211.28 180.579 211.422 180.69C211.625 180.853 211.93 180.914 212.103 181.097C212.915 181.899 214.195 182.763 215.293 183.535C215.526 183.698 215.668 183.911 215.892 184.073C216.227 184.307 216.542 184.429 216.857 184.642C217.964 185.374 219.041 186.156 220.21 186.796C221.947 187.751 223.704 188.686 225.462 189.519C235.022 194.04 244.52 196.539 253.237 197.382C253.765 197.433 254.598 197.524 254.883 197.423C254.944 197.402 255.096 197.585 255.157 197.585C255.177 197.585 255.218 197.453 255.238 197.453C255.299 197.433 255.452 197.605 255.513 197.616C255.543 197.616 255.573 197.484 255.594 197.484C255.655 197.453 255.797 197.636 255.868 197.646C255.97 197.646 256.183 197.524 256.305 197.534C256.346 197.534 256.407 197.595 256.447 197.616C256.61 197.707 256.559 197.565 256.671 197.555C257.128 197.534 257.737 197.656 257.961 197.575C258.022 197.544 258.164 197.748 258.235 197.738C258.377 197.727 258.489 197.534 258.672 197.626C258.977 197.788 259.231 197.626 259.464 197.534C259.515 197.514 259.678 197.687 259.749 197.697C259.769 197.697 259.81 197.575 259.83 197.555C259.891 197.534 260.043 197.717 260.104 197.717C260.186 197.717 260.318 197.534 260.409 197.514C260.562 197.504 260.765 197.626 260.897 197.626C261.425 197.616 262.177 197.565 262.482 197.443C262.543 197.423 262.685 197.616 262.756 197.605C262.898 197.595 263.01 197.402 263.193 197.494C263.355 197.575 263.315 197.433 263.406 197.443C263.569 197.443 263.721 197.565 263.904 197.544C264.107 197.524 264.351 197.392 264.554 197.372C264.686 197.362 264.788 197.412 264.91 197.392C265.032 197.382 265.214 197.291 265.347 197.28C265.56 197.27 265.855 197.351 266.058 197.331C266.149 197.331 266.261 197.148 266.362 197.138C266.535 197.118 266.708 197.26 266.86 197.24C267.043 197.219 267.317 197.097 267.51 197.067C267.785 197.026 268.018 197.026 268.303 196.986C269.817 196.752 271.229 196.529 272.651 196.214C272.885 196.163 273.057 196.082 273.301 196.041C274.602 195.848 275.902 195.442 277.019 195.086C277.741 194.852 278.503 194.639 279.061 194.446C279.63 194.243 280.027 194.121 280.453 193.968C280.971 193.786 281.439 193.633 281.845 193.491C282.109 193.4 282.312 193.288 282.576 193.186C282.851 193.074 283.237 192.983 283.318 192.881C283.491 192.617 283.907 192.8 284.06 192.577C284.222 192.333 284.547 192.434 284.72 192.414C284.791 192.414 284.822 192.17 284.883 192.15C285.004 192.089 285.177 192.099 285.319 192.038C285.563 191.926 285.98 191.835 286.051 191.733C286.152 191.581 286.183 191.733 286.264 191.673C286.406 191.591 286.478 191.419 286.65 191.347C286.803 191.276 287.138 191.246 287.3 191.175C287.412 191.124 287.493 191.043 287.605 190.972C287.737 190.911 288.042 190.839 288.123 190.728C288.215 190.575 288.499 190.545 288.641 190.474C288.926 190.332 289.322 190.24 289.464 190.037C289.566 189.884 289.586 190.027 289.678 189.976C289.952 189.834 290.104 189.681 290.277 189.59C290.572 189.437 290.958 189.356 291.1 189.143C291.202 189.001 291.232 189.143 291.313 189.092C291.567 188.94 291.781 188.686 291.994 188.564C292.146 188.472 292.482 188.493 292.644 188.391C292.675 188.381 292.705 188.29 292.725 188.259C292.817 188.117 292.878 188.249 292.939 188.208C293.396 187.873 293.873 187.436 294.219 187.284C294.331 187.243 294.544 187.243 294.656 187.182C294.737 187.131 295.021 186.867 295.042 186.847C295.194 186.613 295.722 186.41 295.936 186.268C296.129 186.146 296.322 186.024 296.535 185.882C297.206 185.455 298.089 184.612 298.638 184.52C298.699 184.52 298.74 184.287 298.801 184.256C298.821 184.246 298.912 184.338 298.943 184.338C298.994 184.327 299.055 184.094 299.105 184.053C299.451 183.799 299.776 183.637 299.918 183.606C299.969 183.606 300.03 183.372 300.081 183.332C300.751 182.814 301.605 182.275 302.123 181.757C302.214 181.666 302.295 181.727 302.336 181.706C302.803 181.341 303.352 180.711 303.687 180.66C303.738 180.65 303.799 180.416 303.85 180.386C304.144 180.152 304.378 179.949 304.612 179.725C304.693 179.644 304.794 179.695 304.835 179.675C305.709 178.953 306.44 178.171 307.273 177.419C307.426 177.287 307.517 177.297 307.659 177.084C307.751 176.952 307.832 177.074 307.873 177.033C308.269 176.688 308.401 176.403 308.635 176.373C308.685 176.363 308.848 176.007 308.878 175.956C308.96 175.834 309.061 175.926 309.092 175.895C309.315 175.692 309.488 175.377 309.711 175.154C310.961 173.945 312.15 172.787 313.328 171.547C314.009 170.826 314.801 170.115 315.34 169.394C315.482 169.211 315.624 169.18 315.716 169.058C319.769 164.507 324.036 159.204 327.642 153.86C327.846 153.555 328.069 153.403 328.262 153.119C329.024 152.021 329.664 150.904 330.426 149.756C333.403 145.327 336.267 140.877 338.97 135.899L338.899 135.929Z" fill="#95BA32"/>
</g>
<defs>
<clipPath id="clip0_483_2627">
<rect width="512" height="512" fill="white"/>
</clipPath>
</defs>
</svg>
