<svg width="90" height="38" viewBox="0 0 90 38" fill="none" xmlns="http://www.w3.org/2000/svg">
<path d="M89.6398 35.3662C89.6348 35.3611 89.6292 35.3538 89.6246 35.3485C89.4958 32.164 88.5718 28.8795 87.6974 25.8445C87.2215 24.1923 86.701 22.5549 86.1361 20.9321C85.6353 19.4944 85.2676 17.5204 83.9485 16.6488C83.2556 16.1893 82.5213 17.3875 82.4251 18.237L82.4193 18.2392C82.4191 18.2511 82.421 18.2621 82.4209 18.274C82.4077 18.4109 82.4129 18.5385 82.4385 18.6464C82.5364 20.0551 83.174 21.2778 83.694 22.6115C84.3086 24.1869 84.8921 25.7719 85.4252 27.3763C85.9527 28.9639 86.4614 30.5611 86.9454 32.1631C86.9626 32.2201 86.9781 32.2777 86.9951 32.3348C83.3586 28.1625 79.7225 24.0512 75.5698 20.3244C70.7001 15.9542 65.4038 12.028 59.7015 8.80885C47.9765 2.19201 34.4452 -1.16403 20.9799 0.365671C13.6611 1.19889 6.65043 3.50376 0.364209 7.35834C-0.104559 7.64664 -0.192547 8.91465 0.527964 8.49675C11.9079 1.90253 25.6516 0.496772 38.4213 3.06402C51.407 5.6779 63.2155 12.4252 73.1193 21.0813C77.3866 24.8113 81.5762 28.9103 85.2239 33.3468C79.6711 31.1891 73.7 30.0611 67.7563 29.8648C67.6777 29.6453 67.4862 29.5091 67.1178 29.5752C66.6727 29.6565 66.301 29.7215 65.8773 29.8841C65.0191 30.2159 63.815 32.944 65.3916 32.9112C73.4058 32.7414 81.0878 34.4234 88.4716 37.4846C89.4215 37.8785 90.2018 36.0079 89.6398 35.3662Z" fill="#95BA32"/>
</svg>
