<svg width="108" height="45" viewBox="0 0 108 45" fill="none" xmlns="http://www.w3.org/2000/svg">
<path d="M0.226402 42.3462C0.232427 42.3401 0.239153 42.3314 0.244686 42.3251C0.398923 38.512 1.50524 34.5792 2.55217 30.9453C3.12204 28.967 3.74522 27.0063 4.42168 25.0633C5.0213 23.3418 5.46156 20.9782 7.04105 19.9346C7.87073 19.3845 8.74995 20.8191 8.86515 21.8363L8.87204 21.8389C8.87224 21.8531 8.86997 21.8664 8.87017 21.8805C8.88591 22.0445 8.87973 22.1973 8.84902 22.3265C8.73179 24.0132 7.96843 25.4772 7.34581 27.0742C6.60987 28.9605 5.91124 30.8584 5.27285 32.7793C4.64127 34.6803 4.03211 36.5927 3.4526 38.5109C3.43204 38.5792 3.41345 38.6482 3.39313 38.7165C7.74732 33.7207 12.1011 28.7981 17.0734 24.3357C22.9042 19.1029 29.2458 14.4018 36.0736 10.5473C50.1127 2.6245 66.3147 -1.39392 82.4376 0.4377C91.201 1.43538 99.5953 4.19516 107.122 8.81051C107.684 9.1557 107.789 10.674 106.926 10.1736C93.3002 2.27789 76.8439 0.594678 61.5539 3.66861C46.0052 6.79839 31.8661 14.8774 20.0076 25.242C14.8981 29.7081 9.88154 34.6161 5.51393 39.9283C12.1627 37.3447 19.3123 35.9941 26.4291 35.759C26.5232 35.4962 26.7524 35.3332 27.1936 35.4123C27.7265 35.5096 28.1716 35.5874 28.6789 35.7822C29.7065 36.1794 31.1482 39.446 29.2604 39.4067C19.6645 39.2034 10.4663 41.2173 1.62517 44.8828C0.487792 45.3543 -0.446449 43.1145 0.226402 42.3462Z" fill="#95BA32"/>
</svg>
