<svg width="779" height="608" viewBox="0 0 779 608" fill="none" xmlns="http://www.w3.org/2000/svg">
<g opacity="0.17" clip-path="url(#clip0_504_4008)">
<path d="M94.2037 447.394C89.9663 452.815 83.849 456.111 75.8437 457.276L63.833 459.028V399.316L75.8437 397.567C92.3157 395.164 100.553 403.914 100.553 423.818C100.553 434.114 98.433 441.972 94.2037 447.394ZM166.441 413.866C166.441 403.116 165.07 393.362 162.324 384.61C159.58 375.863 155.289 368.535 149.454 362.636C143.62 356.743 136.244 352.498 127.321 349.908C118.398 347.322 107.87 346.908 95.7477 348.676L0.000976562 362.639V607.666L63.833 598.359V505.012L86.1397 501.762C112.446 497.924 132.409 488.666 146.022 473.983C159.63 459.3 166.441 439.26 166.441 413.866Z" fill="#95BA32"/>
<path d="M443.555 473.488C442.982 481.24 442.011 487.499 440.638 492.272C439.264 497.051 437.318 500.595 434.803 502.904C432.283 505.216 429.083 506.656 425.195 507.222C420.39 507.923 416.558 507.227 413.699 505.123C410.835 503.027 408.664 498.883 407.179 492.691C405.688 486.507 404.718 478.008 404.262 467.208C403.8 456.411 403.576 442.771 403.576 426.299C403.576 409.824 403.8 396.123 404.262 385.19C404.718 374.259 405.688 365.478 407.179 358.854C408.664 352.235 410.835 347.456 413.699 344.518C416.558 341.587 420.39 339.768 425.195 339.067C431.371 338.166 435.832 340.035 438.579 344.667C441.323 349.302 442.696 358.595 442.696 372.547V386.275L504.467 377.267V361.824C504.467 349.931 503.035 339.443 500.176 330.363C497.315 321.288 492.742 313.832 486.451 307.998C480.155 302.171 471.979 298.158 461.912 295.963C451.846 293.774 439.608 293.723 425.195 295.827C408.723 298.23 394.878 302.478 383.67 308.576C372.459 314.67 363.424 323.254 356.56 334.32C349.696 345.39 344.832 359.254 341.974 375.912C339.112 392.576 337.686 412.571 337.686 435.907C337.686 458.787 338.888 478.112 341.288 493.894C343.691 509.672 348.094 522.187 354.502 531.43C360.902 540.68 369.827 546.646 381.27 549.318C392.704 551.992 407.35 552.035 425.195 549.432C435.491 547.931 445.496 545.384 455.222 541.795C464.944 538.206 473.582 532.715 481.131 525.318C488.683 517.926 494.742 508.403 499.32 496.755C503.894 485.107 506.184 470.704 506.184 453.544V435.355L444.414 444.363C444.414 456.032 444.123 465.742 443.555 473.488Z" fill="#95BA32"/>
<path d="M696.639 261.045L628.692 270.954L581.335 371.89L580.647 371.989V277.96L516.817 287.269V532.296L580.647 522.986V458.128L594.031 435.586L631.436 515.581L704.188 504.97L634.868 377.122L696.639 261.045Z" fill="#95BA32"/>
<path d="M122.053 213.863L129.611 212.761C139.976 211.249 145.157 216.753 145.157 229.279C145.157 235.756 143.824 240.7 141.163 244.113C138.496 247.524 134.648 249.596 129.611 250.332L122.053 251.433V213.863ZM122.053 280.367L136.088 278.321C152.64 275.905 165.2 270.081 173.768 260.841C182.331 251.604 186.616 238.996 186.616 223.017C186.616 216.252 185.752 210.116 184.024 204.609C182.296 199.105 179.597 194.495 175.928 190.783C172.256 187.073 167.613 184.404 162 182.772C156.387 181.145 149.763 180.887 142.133 181.999L81.8906 190.785V344.959L122.053 339.1V280.367Z" fill="#95BA32"/>
<path d="M374.469 251.006C374.179 257.886 373.568 263.412 372.635 267.577C371.696 271.745 370.331 274.753 368.531 276.596C366.731 278.444 364.32 279.585 361.299 280.025C358.275 280.465 355.864 280.028 354.064 278.705C352.261 277.388 350.896 274.777 349.963 270.881C349.024 266.99 348.413 261.644 348.125 254.849C347.835 248.054 347.696 239.47 347.696 229.108C347.696 218.742 347.835 210.121 348.125 203.241C348.413 196.364 349.024 190.838 349.963 186.67C350.896 182.505 352.261 179.5 354.064 177.649C355.864 175.806 358.275 174.662 361.299 174.22C364.32 173.78 366.731 174.222 368.531 175.54C370.331 176.865 371.696 179.473 372.635 183.364C373.568 187.26 374.179 192.606 374.469 199.398C374.755 206.196 374.901 214.774 374.901 225.14C374.901 235.505 374.755 244.129 374.469 251.006ZM361.299 147.014C351.075 148.505 342.437 151.241 335.387 155.22C328.331 159.201 322.648 164.708 318.328 171.742C314.011 178.78 310.912 187.508 309.043 197.929C307.171 208.35 306.237 220.761 306.237 235.153C306.237 249.55 307.171 261.684 309.043 271.561C310.912 281.436 314.011 289.262 318.328 295.038C322.648 300.814 328.331 304.556 335.387 306.262C342.437 307.966 351.075 308.076 361.299 306.585C371.517 305.094 380.155 302.465 387.208 298.702C394.261 294.942 399.949 289.542 404.267 282.505C408.587 275.47 411.68 266.74 413.552 256.318C415.421 245.897 416.36 233.489 416.36 219.092C416.36 204.7 415.421 192.564 413.552 182.686C411.68 172.812 408.587 164.985 404.267 159.209C399.949 153.436 394.261 149.585 387.208 147.66C380.155 145.742 371.517 145.524 361.299 147.014Z" fill="#95BA32"/>
<path d="M415.062 176.312L444.86 171.966V292.024L485.023 286.166V166.11L515.255 161.702V127.584L415.062 142.195V176.312Z" fill="#95BA32"/>
<path d="M611.34 234.923L558.222 242.67V212.009L606.156 205.017V173.491L558.222 180.483V154.139L609.398 146.675V113.854L518.06 127.177V281.347L611.34 267.745V234.923Z" fill="#95BA32"/>
<path d="M658.412 106.706L618.25 112.562L618.252 266.738L658.414 260.882L658.412 106.706Z" fill="#95BA32"/>
<path d="M740.896 94.6778V189.686L740.464 189.75L714.552 98.5204L669.64 105.07V259.243L707.21 253.763V158.539L707.642 158.475L734.418 249.795L778.466 243.371V89.1978L740.896 94.6778Z" fill="#95BA32"/>
<path d="M193.092 277.795V278.533C193.198 278.285 193.236 277.984 193.193 277.723C193.153 277.757 193.126 277.771 193.092 277.795Z" fill="#95BA32"/>
<path d="M186.822 301.743C186.777 301.905 186.715 302.095 186.659 302.311C186.75 302.199 186.867 302.119 187.067 302.087C187.049 301.868 186.958 301.769 186.822 301.743Z" fill="#95BA32"/>
<path d="M165.784 9.63104C165.75 9.60171 165.704 9.58038 165.678 9.55371C165.704 9.58038 165.723 9.62304 165.766 9.64438C165.766 9.64438 165.776 9.63638 165.784 9.63104Z" fill="#95BA32"/>
<path d="M368.285 35.4603C368.25 35.4016 368.194 35.3243 368.159 35.2603C368.175 35.3429 368.186 35.4283 368.194 35.5243C368.221 35.5003 368.258 35.4923 368.285 35.4603Z" fill="#95BA32"/>
<path d="M192.505 277.136C192.559 277.088 192.624 277.016 192.696 276.977C192.761 277.336 192.532 278.203 193.089 277.794L193.089 274.394C192.904 275.254 192.712 276.155 192.505 277.136Z" fill="#95BA32"/>
<path d="M355.754 577.8C349.268 573.123 342.655 566.112 341.354 562.87C340.047 559.632 336.285 559.758 334.346 554.822C332.396 549.888 328.498 538.984 328.122 522.76C327.714 506.539 326.551 479.672 326.423 473.312C326.362 470.406 325.866 465.491 324.946 460.182C324.94 460.187 324.938 460.182 324.932 460.19L324.93 460.158C324.935 460.155 324.94 460.16 324.946 460.158C324.935 460.088 324.919 460.019 324.906 459.95L324.903 459.902L324.458 457.502L324.229 456.464C324.239 456.464 324.25 456.462 324.258 456.459C323.655 453.502 322.932 450.536 322.077 447.822C322.085 447.875 322.103 447.918 322.103 447.979C322.09 447.987 322.085 447.982 322.074 447.99C322.007 447.536 321.85 447.123 321.764 446.952C321.207 445.224 320.61 443.579 319.938 442.16C319.938 442.16 316.564 437.099 315.914 433.982C315.255 430.864 315.77 422.038 313.18 414.51C312.351 412.115 311.82 408.387 311.458 404.259C311.484 404.715 311.061 404.819 310.591 404.928C310.466 404.382 310.962 404.278 311.458 404.171C311.151 400.395 310.996 396.304 310.97 392.576C310.844 392.459 310.765 392.275 310.807 392.027C310.879 392.003 310.917 392.022 310.962 392.019C310.951 387.291 311.124 383.254 311.367 381.408C311.783 378.272 311.719 369.392 311.594 361.123C310.97 360.424 310.61 360.384 310.492 359.323C310.844 359.134 311.106 358.891 311.557 358.766C311.519 357.032 311.484 355.358 311.458 353.803C311.26 353.819 311.034 353.835 310.773 353.856C310.879 353.555 311.159 353.374 311.447 353.203V352.883C311.303 352.899 311.151 352.886 310.988 352.811C311.06 352.592 311.223 352.459 311.431 352.347C311.412 350.998 311.378 349.771 311.367 348.702C311.242 340.798 310.023 323.534 309.012 314.992C309.012 314.998 309.005 315 309.005 315.006L308.975 314.776C308.986 314.8 308.986 314.832 308.994 314.851C308.933 314.184 308.85 313.552 308.77 313.008C308.77 313.008 308.46 310.896 307.97 307.835L307.978 307.816L307.506 305.024C307.508 305.027 307.514 305.03 307.514 305.032C307.46 304.731 307.404 304.414 307.351 304.104L307.047 302.299L306.631 300.078L306.45 299.142C306.162 297.515 305.818 295.88 305.495 294.272C305.49 294.275 305.482 294.278 305.479 294.28L305.351 293.632C305.287 293.264 305.204 292.894 305.124 292.531C305.119 292.531 305.117 292.526 305.111 292.526L304.791 291.048C304.439 289.568 304.095 288.184 303.727 286.947L303.319 285.571C303.148 285.027 302.978 284.512 302.807 284.062C302.807 284.062 302.49 280.827 301.732 276.086C301.437 276.424 301.02 276.72 300.591 277L300.532 276.64C300.948 276.358 301.327 276.006 301.65 275.579C301.1 272.232 300.354 268.208 299.34 264.046C299.026 263.968 298.727 263.776 298.674 263.472C298.871 263.398 299.026 263.374 299.188 263.368C298.962 262.531 298.746 261.678 298.511 260.835C297.818 258.264 297.231 255.838 296.716 253.502C296.535 253.464 296.364 253.435 296.164 253.451C296.122 253.256 296.095 253.056 296.066 252.864C296.255 252.851 296.402 252.814 296.546 252.768C295.623 248.496 294.964 244.555 294.442 240.79C294.394 240.79 294.319 240.824 294.271 240.827L294.058 239.254C294.119 239.302 294.18 239.347 294.244 239.395C294.162 238.726 294.063 238.067 293.991 237.414C293.874 237.334 293.794 237.203 293.775 236.976C293.828 236.958 293.893 236.955 293.927 236.944C293.794 235.758 293.631 234.576 293.514 233.4C293.468 233.414 293.423 233.432 293.378 233.432C293.279 233.075 293.324 232.827 293.423 232.614C293.386 232.326 293.351 232.038 293.324 231.752C293.306 231.504 293.279 231.184 293.279 230.83C293.234 230.843 293.18 230.843 293.135 230.856C293.188 230.696 293.207 230.504 293.279 230.363C293.292 228.63 293.484 225.96 293.812 222.736C293.25 223.936 292.655 225.107 291.986 226.219C287.81 233.163 281.116 238.027 271.906 240.808V241.24C281.548 240.696 288.17 243.115 291.772 248.491C295.367 253.872 297.17 261.739 297.17 272.104V291.536C297.17 293.696 297.239 295.739 297.386 297.662C297.527 299.582 297.743 301.318 298.034 302.856C298.319 304.4 298.682 305.568 299.111 306.368C299.687 307.15 300.263 307.896 300.839 308.6C301.412 309.31 302.351 309.928 303.647 310.459V312.616L260.892 318.854C259.884 316.987 259.13 314.72 258.626 312.059C258.119 309.398 257.762 306.715 257.546 304.011C257.33 301.307 257.186 298.702 257.114 296.19C257.039 293.686 257.007 291.64 257.007 290.054V279.688C257.007 275.371 256.791 271.806 256.359 268.987C255.927 266.174 255.172 264.014 254.092 262.518C253.012 261.022 251.642 260.067 249.988 259.659C248.332 259.254 246.282 259.227 243.834 259.584L233.255 261.128V322.883L193.092 328.739V278.534C192.93 278.915 192.599 279.166 192.119 278.936C191.38 282.459 190.532 286.534 189.61 290.699C189.647 290.659 189.684 290.627 189.719 290.574C190.268 290.71 189.874 291.115 190.215 291.31C189.972 291.451 189.727 291.611 189.439 291.512C188.78 294.462 188.106 297.443 187.402 300.291C187.402 300.291 187.22 300.398 186.895 301.518C187.084 301.406 187.554 301.478 187.743 301.363C187.826 302.086 187.14 302.254 186.615 302.542C186.058 304.76 185.244 309.16 184.234 317.832C184.29 317.683 184.343 317.544 184.415 317.432C185.479 317.816 185.244 318.563 185.479 319.176C185.055 319.467 184.938 318.547 184.415 319.027C184.29 319.475 184.812 318.971 184.831 319.494C184.378 319.736 184.162 319.507 184.082 319.115C183.378 325.43 182.575 333.832 181.7 345.064C181.7 345.064 181.591 347 181.484 349.936C181.538 350.046 181.644 350.144 181.879 350.211C181.772 350.44 181.636 350.504 181.466 350.491C181.364 352.918 181.276 355.95 181.239 359.158C181.42 359.088 181.655 359.166 181.908 359.347C181.708 359.643 181.908 359.832 181.682 360.136C181.519 360.083 181.554 359.974 181.618 359.862C181.754 359.542 181.5 359.688 181.231 359.662C181.231 359.894 181.231 360.131 181.22 360.366C181.258 360.374 181.276 360.374 181.311 360.379C181.266 360.411 181.258 360.443 181.22 360.478C181.186 363.776 181.204 367.187 181.303 370.246C181.303 370.326 181.311 370.411 181.319 370.483C181.538 370.736 181.466 371.078 181.348 371.427C181.356 371.472 181.356 371.52 181.356 371.571C181.674 371.683 181.818 371.238 182.204 371.611C182.394 372.315 181.996 372.347 181.863 373.014C181.719 372.987 181.554 372.936 181.42 372.883C181.439 373.267 181.455 373.646 181.466 374.032L181.484 374.376C181.924 384.206 182.575 395.776 181.439 402.699C180.148 410.622 179.49 420.224 178.714 422.822C177.927 425.408 177.026 433.067 175.087 438.131C173.13 443.198 169.492 454.875 169.242 457.992C168.978 461.104 167.807 471.102 168.466 481.611C168.7 485.59 168.636 490.531 168.466 495.582C168.618 495.835 168.863 496.032 169.242 496.091C169.015 496.155 168.735 496.187 168.439 496.195C168.148 504.302 167.607 512.611 167.679 517.571V518.096L167.655 521.48C167.618 523.952 167.514 526.774 167.354 529.694C167.359 529.683 167.362 529.68 167.364 529.672L167.332 530.219C167.327 530.216 167.322 530.214 167.319 530.211C166.903 537.96 166.191 546.008 165.468 548.336C164.306 552.096 163.791 555.347 161.319 557.672C159.604 559.302 155.202 563.862 151.81 567.496C152.335 567.467 152.703 568.39 153.039 568.76C152.543 569.264 152.074 568.251 151.468 567.859C150.124 569.31 148.94 570.592 148.212 571.435C145.604 574.416 137.567 578.315 134.716 579.739C134.292 579.952 133.786 580.195 133.236 580.454C133.487 580.512 133.706 580.579 133.922 580.648C133.199 581.147 132.476 581.648 131.538 581.318C130.89 581.662 130.268 582.032 129.663 582.443C129.796 582.478 129.943 582.502 130.076 582.566C129.762 582.731 129.508 582.752 129.274 582.726C127.434 584.083 126.188 585.798 127.18 587.918C127.18 587.918 126.01 590.515 128.743 591.035C128.743 591.035 128.346 592.979 130.818 592.723C130.818 592.723 131.476 595.446 135.626 593.766C135.626 593.766 137.178 598.686 145.351 595.84C146.786 595.32 148.338 594.542 148.732 593.11C148.732 593.11 155.22 592.723 157.684 588.824C160.156 584.942 162.492 582.984 167.175 582.208C169.447 581.83 171.991 581.624 174.428 581.28L174.49 581.302L177.17 580.854L177.396 580.784C177.41 580.782 177.428 580.782 177.442 580.776C177.442 580.776 177.444 580.774 177.444 580.771L178.159 580.558C178.156 580.563 178.156 580.566 178.154 580.571C178.17 580.566 178.178 580.552 178.194 580.547L178.335 580.504L178.346 580.459C179.322 580.091 180.218 579.627 180.914 578.963C181.058 578.83 181.186 578.662 181.319 578.512C181.295 578.51 181.266 578.51 181.258 578.491C181.159 578.171 181.42 578.014 181.348 578.315C181.394 578.342 181.42 578.342 181.455 578.36C184.028 575.432 185.036 570.731 184.434 566.243C184.29 565.259 184.207 563.848 184.188 562.171C183.964 562.243 183.738 562.28 183.487 562.198C183.73 562.112 183.946 561.923 184.18 561.768C184.1 555.256 184.82 544.926 186.626 537.947C187.564 534.384 188.924 528.808 190.306 522.936C190.268 522.8 190.287 522.656 190.386 522.56C191.135 519.422 191.876 516.195 192.562 513.168C195.908 506.019 199.3 499.699 202.359 494.048C202.204 493.936 202.026 493.84 201.844 493.742C202.594 492.776 202.007 493.016 201.647 492.483C201.943 491.539 202.674 492.208 203.26 492.379C208.844 482.072 213.087 474.056 213.375 467.467V467.254C213.258 467.147 213.239 466.96 213.383 466.736C213.591 458.075 211.092 444.854 209.666 438.07C211.271 433.648 213.076 426.478 216.343 420.48C220.122 413.603 219.735 410.096 219.474 405.43C219.346 403.2 219.844 399.582 220.546 395.79C239.004 364.539 242.983 334.254 243.804 320.688C244.418 320.942 245.103 321.134 245.807 321.179C245.815 324.76 246.079 329.48 246.943 335.134C247.151 335.118 247.367 335.115 247.503 335.051C247.764 335.462 247.628 335.675 247.927 336.376C247.466 336.422 247.306 336.024 247.034 335.787C249.234 349.584 255.044 368.766 269.434 390.63L273.756 400.638C274.026 402.488 274.188 403.904 274.252 404.643C274.506 408.672 275.812 424.635 279.439 428.787C280.775 430.32 282.255 432.787 283.615 435.486C282.399 440.915 278.908 457.579 279.34 467.467C279.844 479.086 295.516 497.075 306.396 522.416C306.74 523.67 307.063 524.726 307.343 525.488C309.418 531.2 313.308 545.35 313.831 550.15C314.343 554.952 314.092 562.219 313.706 565.726C313.309 569.235 309.941 578.446 320.589 581.819C320.589 581.819 324.087 583.118 327.066 582.6C330.068 582.078 331.484 583.118 332.911 585.456C334.346 587.792 336.159 593.11 342.519 592.854C342.519 592.854 348.221 599.734 355.89 594.803C355.89 594.803 360.039 595.84 360.69 592.203C360.69 592.203 363.034 592.203 363.034 590.259C363.034 590.259 364.847 589.862 364.45 587.662C364.45 587.662 366.274 586.624 365.109 584.155C365.109 584.155 362.25 582.47 355.754 577.8Z" fill="#95BA32"/>
<path d="M100.324 110.913C102.111 111.631 111.484 118.169 125.729 123.052C127.327 124.121 129.103 125.236 131.007 126.335C131.276 126.359 131.593 126.431 131.881 126.484C131.9 126.62 131.865 126.724 131.828 126.815C137.655 130.116 144.585 133.22 151.604 134.447C151.639 134.436 151.665 134.415 151.703 134.409C151.711 134.423 151.703 134.447 151.711 134.46C158.241 135.591 164.847 135.092 170.719 131.631C174.284 129.537 175.655 132.783 175.735 134.143C176.087 141.684 177.324 151.393 180.852 159.353C184.233 166.964 188.433 175.831 193.092 185.284V174.567L255.927 165.404C263.553 164.292 270.071 164.351 275.468 165.577C280.865 166.807 285.255 169.009 288.639 172.185C292.02 175.364 294.471 179.361 295.983 184.177C297.26 188.257 297.964 192.748 298.161 197.599C298.649 196.695 299.132 195.809 299.612 194.945C299.452 195.103 299.255 195.263 299.105 195.447L300.927 191.7C301.071 191.767 301.239 191.799 301.353 191.905C304.556 186.367 307.596 181.671 310.436 177.223C310.42 177.188 310.444 177.153 310.431 177.119L311.172 175.932C311.18 175.98 311.137 176.004 311.159 176.057C312.377 174.145 313.54 172.265 314.66 170.369C314.657 170.364 314.663 170.353 314.663 170.348L314.921 169.932C315.716 168.593 316.481 167.239 317.212 165.863C317.18 165.871 317.14 165.897 317.1 165.908C317.263 165.596 317.425 165.292 317.599 164.956C317.617 164.983 317.641 165.007 317.655 165.033C317.711 164.927 317.764 164.825 317.836 164.721C317.783 164.745 317.74 164.759 317.695 164.777C317.825 164.527 317.961 164.255 318.097 163.993C318.119 164.02 318.156 164.017 318.177 164.047C318.385 163.636 318.585 163.22 318.801 162.815C318.791 162.711 318.809 162.628 318.847 162.567C318.841 162.561 318.839 162.556 318.833 162.551C319.396 161.436 319.967 160.279 320.516 159.119C323.039 153.777 323.492 149.097 323.492 149.097L323.18 148.801C323.18 148.727 323.204 148.681 323.204 148.607C323.276 148.735 323.367 148.921 323.492 149.097C324.332 144.884 324.844 140.639 325.404 136.823C325.927 133.137 337.015 133.783 338.089 133.919C339.676 134.116 341.3 134.116 342.943 134.004C342.916 133.959 342.887 133.921 342.863 133.881C342.961 133.777 343.052 133.868 343.113 133.993C343.519 133.959 343.916 133.921 344.313 133.881L346.535 133.559C347.399 133.391 348.284 133.175 349.167 132.94C349.161 132.924 349.145 132.911 349.137 132.895L349.487 132.807C349.511 132.825 349.543 132.817 349.564 132.839C349.681 132.804 349.809 132.764 349.927 132.727C349.921 132.719 349.919 132.708 349.911 132.7L350.423 132.569C350.855 132.433 351.287 132.303 351.721 132.153C351.716 132.14 351.711 132.127 351.705 132.116L352.5 131.833C352.529 131.839 352.553 131.857 352.585 131.857C352.793 131.785 353.001 131.695 353.209 131.623C353.201 131.612 353.193 131.601 353.185 131.591L354.337 131.185C354.633 131.057 354.951 130.945 355.247 130.82C355.231 130.788 355.22 130.769 355.212 130.748C355.265 130.729 355.329 130.748 355.412 130.737C357.884 129.673 360.284 128.415 362.601 127.052L363.305 126.647C366.327 124.82 369.169 122.831 371.713 120.873L373.716 119.321C373.951 119.135 374.177 118.951 374.401 118.772C374.401 118.767 374.407 118.767 374.407 118.761L375.303 118.031L380.284 114.041C380.289 114.036 380.295 114.033 380.3 114.031L383.644 111.351C383.668 111.335 383.689 111.319 383.711 111.3L384.167 110.932C384.169 110.935 384.169 110.937 384.172 110.94C384.279 110.863 384.388 110.785 384.495 110.705C384.481 110.703 384.471 110.7 384.46 110.7L385.831 109.601L385.783 109.583L388.799 107.3C389.385 106.767 389.908 106.217 390.361 105.652C390.311 105.607 390.257 105.564 390.204 105.521C390.284 105.399 390.356 105.265 390.436 105.135C390.503 105.183 390.593 105.185 390.657 105.239C391.396 104.18 391.748 103.049 391.649 101.828C391.775 100.735 391.553 99.6147 390.767 98.5614C390.737 98.4281 390.716 98.3561 390.687 98.2014C390.631 98.1827 390.54 98.1881 390.505 98.1427C390.54 98.0841 390.615 98.0387 390.649 97.9801C390.487 97.0467 390.361 95.7827 390.415 94.3001C390.441 93.4201 390.225 91.4094 389.801 88.8147C389.567 88.7694 389.423 88.6334 389.476 88.3054C389.583 88.3081 389.647 88.3641 389.737 88.4041C389.228 85.4147 388.441 81.7294 387.473 78.1347C387.137 76.5827 384.812 66.8761 378.023 57.4894C376.892 54.9667 375.801 52.3107 374.825 49.828C374.836 49.98 374.836 50.1241 374.836 50.2814C374.527 50.1107 374.076 50.1107 373.988 49.7267C374.004 49.364 374.212 49.1961 374.583 49.1774C373.076 45.3721 371.839 42.0814 371.081 40.5614C370.756 39.8947 370.207 38.9294 369.583 37.7934C369.524 37.844 369.463 37.8654 369.401 37.9161C369.372 37.8574 369.327 37.7694 369.292 37.7054C369.364 37.6387 369.343 37.5454 369.431 37.4947C369.404 37.4494 369.367 37.4094 369.329 37.3587C369.313 37.3854 369.303 37.4227 369.276 37.4494C369.199 37.3721 369.119 37.2974 369.041 37.2227C368.633 36.4307 368.084 35.3721 367.423 34.0921C367.439 34.0761 367.457 34.06 367.473 34.044C367.372 33.8307 367.247 33.6387 367.137 33.4307C367.124 33.444 367.119 33.4654 367.105 33.4787C364.82 29.044 361.775 23.108 360.569 20.6067C360.583 20.6227 360.607 20.628 360.617 20.6467C360.527 20.3614 360.463 20.1054 360.436 19.9107C360.436 19.852 360.401 19.7907 360.391 19.732H360.156C360.143 19.7 360.103 19.6227 360.092 19.596C360.111 19.1027 359.633 18.7294 359.796 18.404C360.017 16.7747 343.601 0.649377 336.745 0.100043C336.353 -0.0146232 335.876 -0.0332868 335.332 0.0573799C329.985 0.124047 328.233 3.20138 328.039 3.58272C327.839 3.88405 327.644 4.20938 327.471 4.59338C327.471 4.59338 327.452 4.61472 327.452 4.62005C327.455 4.62005 327.455 4.62271 327.457 4.62271L326.225 7.10004L325.577 8.13471L324.348 9.65738C324.276 9.72672 324.196 9.81205 324.087 9.90538C324.097 9.91071 324.108 9.92405 324.119 9.92671L323.183 11.0307C323.177 11.0174 323.175 11.0014 323.167 10.9907C323.097 11.0787 323.033 11.1907 322.964 11.2867L322.836 11.4387L322.799 11.5294C322.7 11.6787 322.593 11.812 322.5 11.9694L322.279 12.5854C322.26 12.564 322.22 12.564 322.201 12.54C321.887 13.1587 321.687 13.7987 321.641 14.4227L321.759 19.8307L321.764 20.2574C321.761 20.2574 321.756 20.2574 321.751 20.2547C321.759 20.268 321.751 20.2814 321.751 20.3C321.769 20.42 321.761 20.564 321.769 20.6947L321.78 21.4094L321.804 21.4334C321.809 22.62 321.836 23.9161 323.329 24.6574C323.337 24.5934 323.356 24.5534 323.393 24.5347C323.519 24.5534 323.564 24.6574 323.591 24.7694C324.196 25.0121 324.972 25.1747 326.047 25.2307C326.047 25.2307 326.081 25.2441 326.172 25.2601L327.108 25.4654C327.46 25.5401 327.9 25.6307 328.399 25.7294L334.255 26.9294L334.623 26.2414L335.705 26.9534C335.705 26.9534 336.66 27.532 337.233 27.516C337.201 27.5374 337.175 27.5641 337.159 27.6014C337.249 27.6201 337.34 27.6307 337.431 27.6467C337.575 27.644 337.737 27.6307 337.836 27.5854C337.828 27.6387 337.775 27.6574 337.737 27.7027C338.188 27.7774 338.62 27.8414 339.036 27.8867C339.108 27.788 339.161 27.6787 339.263 27.5854C339.396 27.6734 339.46 27.8014 339.524 27.9267C340.271 27.9854 340.993 27.9854 341.66 27.892C341.66 27.892 341.991 28.0254 342.916 27.5614C343.239 27.4307 343.556 27.3667 343.855 27.332C343.871 27.3267 343.889 27.332 343.889 27.332C343.889 27.2894 343.881 27.236 343.871 27.1827C343.836 27.076 343.836 26.9747 343.9 26.8707C343.967 26.8494 343.961 26.7854 344.097 26.7907C344.665 26.8067 345.241 27.2467 345.737 27.3747L345.676 27.4707C345.937 27.7347 346.145 28.0441 346.327 28.3747C346.335 28.372 346.343 28.38 346.353 28.3774C347.079 29.804 350.524 36.6121 352.897 42.0841L352.895 42.0867C353.001 42.34 353.111 42.5827 353.217 42.8494C353.223 42.852 353.225 42.8601 353.231 42.8627C353.372 43.1934 353.511 43.5214 353.639 43.836H353.633C353.732 44.0814 353.831 44.3294 353.921 44.5774C353.929 44.58 353.935 44.5827 353.94 44.5854C354.001 44.7427 354.068 44.9054 354.127 45.0574C354.124 45.0601 354.121 45.0627 354.121 45.0654C354.228 45.3294 354.316 45.5854 354.42 45.8521C354.455 45.9427 354.495 46.0467 354.527 46.1347L354.529 46.132C355.071 47.4974 355.607 48.8681 356.079 50.1934C356.151 50.1161 356.204 50.0441 356.257 49.9721C356.367 50.2467 356.34 50.4947 356.276 50.7294C356.764 52.1267 357.207 53.4867 357.54 54.7134C357.649 54.7294 357.729 54.7801 357.82 54.9374C357.801 55.0361 357.745 55.0734 357.673 55.0867C357.892 55.1987 358.036 55.3721 358.092 55.6467C357.945 55.6281 357.847 55.5561 357.745 55.4921C357.828 55.7961 357.911 56.1107 357.956 56.3987C358.153 57.2467 358.316 58.3267 358.452 59.5294C358.615 59.5001 358.785 59.4841 358.964 59.5827C358.804 59.6921 358.649 59.7961 358.487 59.8414C358.609 60.9534 358.724 62.1934 358.823 63.4974C358.881 65.3347 359.58 87.0681 359.759 87.6094C359.761 87.6147 359.791 87.6174 359.796 87.6227C359.833 88.4174 359.871 89.1614 359.913 89.7854C337.441 81.1187 326.225 95.1347 326.225 95.1347C321.209 93.3267 314.081 91.4921 306.423 91.9134C306.412 91.9801 306.377 92.0281 306.361 92.092C306.223 92.0947 306.1 92.0974 305.951 92.1027C305.959 92.0441 305.967 91.9614 305.964 91.9347H305.908C305.884 91.9587 305.82 92.0494 305.775 92.1054C305.708 92.1081 305.641 92.1134 305.575 92.1161C305.545 92.0681 305.508 92.0201 305.476 91.9774C304.393 92.0627 303.303 92.2201 302.204 92.4014C301.996 92.4281 301.796 92.452 301.588 92.4814C301.564 92.4841 301.54 92.4867 301.516 92.4894C301.513 92.4921 301.513 92.4921 301.513 92.4947C299.788 92.7454 298.089 93.1614 296.721 93.7854C293.396 94.9267 290.097 96.6227 286.937 99.0894C286.945 99.2387 286.892 99.3881 286.748 99.5401C286.684 99.4867 286.631 99.4361 286.575 99.3827C284.689 100.9 282.857 102.657 281.089 104.761L280.721 105.228C280.521 105.468 280.313 105.703 280.124 105.956C280.116 105.961 280.079 105.972 280.079 105.983C276.977 107.665 269.047 102.996 267.756 98.5801C267.071 96.2761 266.863 93.8041 267.108 91.5347C267.105 91.5321 267.105 91.5321 267.105 91.5294L267.188 90.9961C267.415 89.4147 267.863 87.9667 268.54 86.7667C268.54 86.7534 268.524 86.7427 268.521 86.7294L268.721 86.4787C268.785 86.3641 268.847 86.2307 268.921 86.1214C269.497 85.3001 270.039 84.2307 270.535 83.0574L270.74 82.5321C270.745 82.5347 270.748 82.5374 270.751 82.5401C270.833 82.3374 270.903 82.1187 270.983 81.9107L271.028 81.7907C272.113 78.9534 272.913 75.7374 273.079 73.5267C273.079 73.5267 274.884 73.1401 275.532 70.4147C275.532 70.4147 275.66 69.5267 277.428 67.2121C278.572 65.7241 278.791 62.6921 278.871 61.3801C278.996 59.8547 279.7 58.8654 279.7 58.0814C279.7 57.3054 279.575 53.6707 276.977 55.8707C276.977 55.8707 278.692 48.0707 278.895 44.5454C279.225 41.0334 278.993 37.4947 276.953 32.692C276.921 32.628 276.889 32.5587 276.868 32.4921V32.4974C276.663 32.0254 276.479 31.5667 276.236 31.0654C276.001 30.5801 275.716 30.1054 275.409 29.6414C275.361 29.5694 275.329 29.4921 275.281 29.42C275.276 29.428 275.273 29.4361 275.268 29.4441C274.924 28.9454 274.543 28.46 274.132 27.988C273.948 27.772 273.764 27.5614 273.569 27.3587C269.063 22.6334 261.9 19.6147 261.9 19.6147C261.388 19.38 260.863 19.1534 260.351 18.9427L260.601 19.2094L259.591 18.636C257.879 17.9987 256.172 17.556 254.449 17.3454C254.332 17.4494 254.26 17.556 254.199 17.668C254.044 17.5027 253.889 17.34 253.745 17.4574C253.719 17.3827 253.727 17.3214 253.719 17.2494C253.079 17.2014 252.428 17.1694 251.788 17.2014C251.788 17.2014 247.449 16.812 241.972 19.4654C241.9 19.7907 241.612 19.7774 241.593 20.1774C241.412 20.0707 241.287 19.956 241.161 19.8574C240.727 20.084 240.295 20.3294 239.852 20.6014C239.852 20.668 239.852 20.724 239.825 20.8014C239.753 20.7827 239.689 20.7587 239.617 20.7507C238.164 21.6521 236.668 22.7801 235.18 24.2067C235.18 24.2067 229.199 28.2307 227.385 35.628C227.385 35.628 224.399 44.4547 227.257 53.6707C227.257 53.6707 225.311 52.1134 224.399 53.932C223.497 55.7507 224.66 58.3427 225.175 60.5454C225.697 62.7614 225.175 64.8307 227.124 66.5161C229.081 68.2041 228.431 72.1001 230.895 71.8387C230.895 71.8387 230.641 80.1454 233.484 85.4734C233.879 86.2467 233.996 93.6441 232.319 96.3774C230.785 98.8601 222.991 102.959 218.671 101.796C211.959 94.4654 204.199 91.5561 196.809 90.9694C195.868 90.8547 194.743 90.9507 193.737 90.9027C193.7 90.8627 193.681 90.7827 193.644 90.7507C193.54 90.7321 193.527 90.8574 193.457 90.8974C191.94 90.8334 190.505 90.6681 188.844 90.7961C188.844 90.7961 181.095 91.3001 174.679 94.7374C160.633 80.7481 140.956 89.0441 131.775 94.2361C131.737 94.0574 131.692 93.8121 131.62 93.5054C133.127 90.8574 134.201 87.7321 134.932 84.4121C134.804 84.4387 134.687 84.4521 134.543 84.4254C134.625 83.9961 134.895 83.8974 135.076 83.6441C137.079 73.9347 136.439 62.7294 135.852 56.6894C137.98 49.9667 140.065 39.8681 142.671 36.3721C145.793 32.2174 145.097 31.8707 151.34 31.8707C151.34 31.8707 153.308 31.6574 155.103 31.228C155.247 31.0627 155.356 30.8547 155.5 30.6787C155.599 30.8467 155.708 30.9454 155.807 31.0494C157.729 30.5214 161.039 29.5294 162.14 29.276C162.601 29.172 163.249 28.8787 164.009 28.5134C163.999 28.3934 163.991 28.2654 163.999 28.1427C164.223 28.1587 164.343 28.2201 164.449 28.2974C165.452 27.8014 166.561 27.2094 167.591 26.764C169.583 25.9027 170.719 24.8547 170.54 23.3027C170.359 21.7427 168.636 19.2387 166.129 19.7987C166.129 19.7987 168.735 17.9854 169.113 16.2947C169.393 15.012 168.799 12.5507 166.804 10.524L165.068 9.20405C165.068 9.19872 165.081 9.18805 165.081 9.18005C164.956 9.09471 164.828 9.00405 164.692 8.91871L163.124 8.04404C160.3 6.46538 159.441 5.66538 158.081 4.87605C158.081 4.87605 157.033 2.40938 155.084 2.01738C154.724 1.94004 154.372 1.92138 154.047 1.93471C154.049 1.93738 154.052 1.94004 154.055 1.94271L153.967 1.93471C152.623 1.97738 151.719 2.54005 151.719 2.54005C151.719 2.54005 151.169 2.35871 150.449 2.32405L150.124 2.31071C149.204 2.33205 148.103 2.63604 147.436 3.83071C147.436 3.83071 144.332 3.06005 143.673 6.82005C143.673 6.82005 143.519 7.03338 143.265 7.37205V7.37738L142.735 8.03871C142.284 8.59338 141.687 9.25204 141.033 9.88671L140.679 10.2147V10.212C140.255 10.588 139.839 10.9427 139.388 11.2334C138.937 11.5214 138.567 11.9694 138.233 12.468C138.252 12.4867 138.268 12.5187 138.287 12.54C138.241 12.596 138.169 12.6147 138.116 12.6147C136.863 14.5614 136.239 17.5294 135.228 18.6307C134.705 19.2067 133.705 20.3854 132.593 21.8867L130.801 24.572C130.791 24.5534 130.777 24.532 130.761 24.5134C130.588 24.7854 130.436 25.0894 130.265 25.3721C129.377 26.8521 128.54 28.4307 127.956 30.052C126.143 35.1134 117.719 52.764 116.545 54.3161C115.361 55.8707 104.988 73.5267 102.788 81.7054C102.217 83.7614 101.705 85.8334 101.252 87.8307C101.233 88.0654 101.145 88.3507 101.092 88.6067C101.081 88.6067 101.081 88.6014 101.081 88.6014C99.7907 94.2494 98.9427 99.2441 98.7533 101.567C98.7533 101.567 98.3667 103.385 97.5907 104.679C96.804 105.983 98.3667 110.127 100.324 110.913Z" fill="#95BA32"/>
<path d="M241.027 196.512L233.254 197.645V233.922L241.243 232.754C247.001 231.917 251.246 229.608 253.982 225.824C256.715 222.045 258.086 217.418 258.086 211.946C258.086 205.469 256.753 201.056 254.091 198.709C251.425 196.365 247.073 195.629 241.027 196.512Z" fill="#95BA32"/>
</g>
<defs>
<clipPath id="clip0_504_4008">
<rect width="779" height="608" fill="white"/>
</clipPath>
</defs>
</svg>
