<svg width="464" height="472" viewBox="0 0 464 472" fill="none" xmlns="http://www.w3.org/2000/svg">
<g opacity="0.06" clip-path="url(#clip0_504_2691)">
<path d="M254.487 511.547C139.131 562.906 3.50259 510.844 -47.8573 395.487C-99.2172 280.131 -47.1543 144.503 68.2019 93.1427C183.558 41.7828 319.187 93.8457 370.547 209.202C421.906 324.558 369.844 460.187 254.487 511.547ZM77.6792 114.429C-25.938 160.562 -72.7043 282.393 -26.571 386.01C19.5623 489.627 141.393 536.394 245.01 490.26C348.627 444.127 395.394 322.296 349.26 218.679C303.127 115.062 181.296 68.2957 77.6792 114.429Z" fill="#95BA32"/>
<path d="M75.4593 295.717L101.071 284.314L158.827 356.504L159.251 356.316L143.403 265.467L167.744 254.629L223.807 327.574L224.231 327.385L210.076 235.782L234.625 224.852L249.062 349.555L224.298 360.581L167.784 288.344L167.361 288.533L183.443 378.77L158.039 390.081L75.451 295.721L75.4593 295.717Z" fill="#95BA32"/>
<path d="M120.957 421.855L36.7184 232.653L6.17537 246.251L104.012 465.997L104.17 465.927L134.555 452.398L297.565 379.822L283.966 349.279L120.957 421.855Z" fill="#95BA32"/>
<path d="M185.402 174.062C185.696 170.321 186.022 165.49 185.618 162.169C185.541 161.526 185.443 160.257 185.151 159.959C185.112 159.917 185.21 159.734 185.188 159.684C185.147 159.593 184.97 159.463 184.934 159.359C184.919 159.326 184.947 159.254 184.952 159.222C184.973 158.954 184.726 158.825 184.735 158.622C184.742 158.46 184.637 158.536 184.604 158.462C184.413 158.01 183.916 157.117 183.476 157.044C183.326 157.021 183.42 156.92 183.356 156.888C183.035 156.703 182.135 156.557 181.809 156.563C181.707 156.558 181.665 156.687 181.648 156.694C181.534 156.705 181.339 156.603 181.228 156.643C181.153 156.676 180.998 156.864 180.911 156.893C180.712 156.982 180.517 156.879 180.33 156.973C180.209 157.036 180.124 157.293 179.999 157.369C179.936 157.406 179.786 157.314 179.716 157.336C179.674 157.354 179.591 157.57 179.545 157.6C179.24 157.786 178.902 157.877 178.633 158.076C177.767 158.701 177.117 159.408 176.386 160.111C176.156 160.333 175.456 160.794 175.422 161.008C175.378 161.266 174.705 161.676 174.61 161.777C174.482 161.914 174.399 162.04 174.279 162.173C174.05 162.395 173.716 162.583 173.486 162.805C173.236 163.046 173.071 163.348 172.821 163.589C172.591 163.81 172.278 163.979 172.036 164.217C171.785 164.458 171.613 164.763 171.37 165C171.149 165.218 170.807 165.411 170.577 165.632C170.067 166.118 169.614 166.598 169.127 167.044C169.029 167.137 168.916 167.197 168.81 167.294C168.406 167.683 168.075 167.989 167.694 168.318C167.149 168.77 166.625 169.133 166.113 169.569C165.593 170.01 165.082 170.426 164.531 170.821C163.787 171.361 163.122 171.946 162.499 172.312C162.011 172.6 161.677 172.878 161.252 173.176C160.996 173.36 160.719 173.632 160.468 173.804C160.321 173.899 160.152 173.944 160.014 174.036C159.517 174.327 159.195 174.609 158.763 174.891C158.47 175.081 158.292 175.24 158.134 175.4C158.083 175.442 157.905 175.333 157.851 175.367C157.549 175.561 157.355 175.816 157.058 175.998C156.903 176.097 156.754 176.143 156.604 176.23C156.257 176.434 155.902 176.732 155.673 176.844C155.557 176.895 155.468 176.895 155.375 176.956C155.053 177.149 154.548 177.713 154.281 177.692C154.115 177.677 154.212 177.763 154.125 177.812C153.586 178.121 153.011 178.437 152.595 178.642C152.308 178.78 152.279 178.872 152.118 179.024C152.075 179.062 151.889 178.956 151.834 178.991C151.701 179.07 151.633 179.299 151.5 179.378C151.437 179.416 151.287 179.324 151.216 179.345C151.175 179.364 151.096 179.588 151.038 179.614C150.971 179.643 150.824 179.56 150.754 179.581C150.713 179.599 150.634 179.824 150.584 179.846C150.509 179.879 150.379 179.788 150.301 179.813C150.251 179.835 150.18 180.055 150.122 180.081C150.072 180.104 149.864 180.196 149.82 180.186C149.617 180.177 149.553 180.434 149.366 180.418C149.2 180.402 149.293 180.5 149.214 180.545C148.893 180.718 148.779 180.729 148.596 180.9C148.554 180.939 148.371 180.841 148.313 180.867C148.184 180.934 148.112 181.175 147.982 181.263C147.919 181.301 147.769 181.209 147.698 181.23C147.657 181.248 147.578 181.473 147.52 181.498C147.445 181.532 147.315 181.441 147.236 181.465C147.195 181.484 147.124 181.705 147.066 181.73C146.991 181.764 146.861 181.672 146.783 181.697C146.733 181.72 146.67 181.936 146.612 181.962C146.537 181.996 146.407 181.904 146.329 181.929C146.279 181.951 146.216 182.168 146.15 182.198C145.822 182.334 145.56 182.281 145.401 182.392C145.27 182.5 145.085 182.533 144.951 182.632C144.816 182.732 144.627 182.777 144.488 182.868C144.354 182.968 144.165 183.012 144.035 183.1C143.887 183.215 143.755 183.254 143.576 183.344C143.402 183.421 143.285 183.493 143.122 183.576C142.948 183.653 142.823 183.729 142.66 183.811C142.49 183.897 142.369 183.961 142.21 184.051C142.102 184.099 142.016 184.108 141.912 184.164C141.771 184.227 141.708 184.354 141.592 184.406C141.401 184.491 141.198 184.393 141.011 184.486C141.011 184.486 140.863 184.601 140.855 184.605C140.72 184.705 140.528 184.741 140.401 184.837C140.25 184.944 140.11 184.987 139.939 185.073C139.768 185.158 139.651 185.23 139.477 185.308C139.369 185.356 139.279 185.377 139.179 185.421C138.905 185.543 138.63 185.775 138.424 185.757C138.261 185.75 138.346 185.851 138.263 185.888C137.591 186.188 136.655 186.545 136.148 186.79C136.04 186.838 135.95 186.859 135.85 186.903C135.576 187.025 135.293 187.261 135.094 187.239C134.888 187.222 134.827 187.488 134.641 187.471C134.478 187.464 134.563 187.566 134.48 187.602C134.281 187.691 134.09 187.597 133.899 187.682L133.735 187.805C133.587 187.92 133.452 187.951 133.281 188.037C132.382 188.477 131.133 188.933 130.406 189.287C130.003 189.477 129.734 189.477 129.367 189.591C129.317 189.613 129.258 189.838 129.196 189.856C128.993 189.936 128.806 189.85 128.611 189.927C128.578 189.942 128.514 190.02 128.447 190.05C128.277 190.136 128.156 190.199 127.985 190.285C127.594 190.479 127.297 190.482 126.95 190.597C126.9 190.619 126.838 190.836 126.771 190.866C126.63 190.928 126.447 190.92 126.336 190.96C126.039 191.052 125.879 191.074 125.59 191.163C125.54 191.185 125.486 191.398 125.42 191.428C125.212 191.52 125.029 191.422 124.839 191.507C124.805 191.522 124.741 191.601 124.678 191.638C124.375 191.783 124.138 191.879 123.914 191.978C123.624 192.108 123.478 192.093 123.181 192.186C123.131 192.208 123.068 192.425 123.01 192.451C122.803 192.543 122.627 192.462 122.429 192.53C122.412 192.538 122.323 192.627 122.265 192.653C122.165 192.697 122.067 192.722 121.967 192.766C121.689 192.88 121.418 193.12 121.211 193.102C121.017 193.089 120.34 193.401 120.31 193.424C120.163 193.539 120.019 193.574 119.848 193.66C119.153 193.999 118.285 194.306 117.725 194.565C117.434 194.695 117.284 194.672 116.987 194.764C116.938 194.786 116.879 195.011 116.817 195.029C116.618 195.118 116.435 195.02 116.236 195.109C116.194 195.127 116.15 195.207 116.083 195.236C115.909 195.314 115.792 195.386 115.63 195.468C115.422 195.56 115.152 195.691 115.03 195.685C114.827 195.676 114.759 195.925 114.576 195.917C114.41 195.902 114.495 196.003 114.42 196.036C114.221 196.125 114.03 196.031 113.839 196.116C113.856 196.109 113.683 196.235 113.675 196.239C113.536 196.351 113.392 196.385 113.221 196.471C113.05 196.557 112.925 196.632 112.759 196.706C112.651 196.754 112.557 196.766 112.461 196.819C112.187 196.941 111.9 197.168 111.697 197.159C111.494 197.15 111.23 197.317 111.098 197.376C111.056 197.395 111.008 197.466 110.945 197.504C110.838 197.552 110.743 197.564 110.647 197.617C110.315 197.764 109.685 198.204 109.434 198.197C109.267 198.181 109.352 198.283 109.273 198.328C108.986 198.466 108.821 198.43 108.536 198.527C108.494 198.545 108.424 198.766 108.365 198.792C108.291 198.825 108.152 198.737 108.082 198.759C108.029 198.773 107.97 198.998 107.903 199.027C107.716 199.121 107.513 199.022 107.322 199.107C107.339 199.1 107.17 199.235 107.17 199.235C107.027 199.338 106.842 199.37 106.7 199.474C106.56 199.586 106.416 199.62 106.237 199.709C106.063 199.787 105.95 199.867 105.787 199.95C105.613 200.027 105.496 200.099 105.333 200.182C105.159 200.259 105.034 200.335 104.871 200.417C104.697 200.495 104.58 200.567 104.417 200.649C104.243 200.727 104.13 200.807 103.964 200.881C103.789 200.959 103.672 201.031 103.502 201.117C103.327 201.194 103.214 201.274 103.051 201.357C102.877 201.434 102.76 201.506 102.598 201.589C102.311 201.726 102.278 201.81 102.121 201.97C102.078 202.009 101.896 201.911 101.838 201.937C101.788 201.959 101.709 202.163 101.667 202.202C101.616 202.244 101.442 202.143 101.384 202.169C101.334 202.191 101.252 202.387 101.213 202.434C101.162 202.476 100.984 202.367 100.93 202.401C100.804 202.477 100.733 202.717 100.599 202.797C100.528 202.838 100.386 202.743 100.307 202.767C100.266 202.786 100.187 203.01 100.137 203.032C100.091 203.063 99.8794 203.147 99.8388 203.145C99.6764 203.138 99.7705 203.215 99.6829 203.264C98.7098 203.827 97.9203 204.288 97.0579 204.831C96.7941 204.998 96.5395 205.141 96.2794 205.317C96.0064 205.508 95.7547 205.769 95.4863 205.948C95.205 206.143 94.8388 206.237 94.5704 206.416C94.2725 206.618 94.0512 206.836 93.7773 207.048C93.2673 207.444 92.7056 207.903 92.1993 208.307C91.6469 208.742 91.0576 209.184 90.6177 209.559C90.495 209.663 90.5358 209.844 90.4242 209.973C90.3218 210.078 90.0764 210.108 89.9704 210.205C89.7998 210.38 89.5434 210.654 89.4835 210.72C89.4061 210.814 89.3895 210.911 89.3047 210.989C89.041 211.245 88.3852 211.627 88.341 211.885C88.3052 212.05 88.2451 211.938 88.1769 212.008C87.5701 212.656 87.0649 213.309 86.5228 213.968C86.3375 214.2 86.0424 214.431 86.013 214.633C85.9753 214.839 85.7151 214.835 85.682 215.029C85.6507 215.182 85.5612 215.093 85.5298 215.156C85.4072 215.35 85.4479 215.531 85.318 215.708C85.2617 215.783 85.0662 215.88 85.0016 215.958C84.9629 216.006 84.8329 216.183 84.8228 216.227C84.7952 216.389 84.7149 216.275 84.6706 216.355C84.5407 216.532 84.5768 216.725 84.4634 216.894C84.4588 216.906 84.3416 216.978 84.3029 217.026C84.2301 217.108 84.1849 217.207 84.1241 217.294C83.4448 218.383 82.6725 219.821 82.1444 220.802C82.1306 220.838 82.1315 220.907 82.1297 220.948C82.1031 221.089 81.9923 221.019 81.9693 221.079C81.8135 221.377 81.6911 221.839 81.5538 222.179C81.4451 222.426 81.2221 222.774 81.1861 222.85C81.0903 223.082 81.0664 223.251 80.978 223.41C80.8314 223.684 80.8112 223.773 80.756 224.096C80.734 224.225 80.6094 224.191 80.5956 224.227C80.4298 224.659 80.4059 224.829 80.3443 225.204C80.3185 225.325 80.193 225.311 80.1801 225.327C80.0531 225.712 80.0192 226.195 79.8959 226.588C79.8388 226.772 79.7733 226.871 79.684 227.14C79.3709 228.135 79.1436 229.121 78.9035 230.213C78.4518 232.304 78.3029 234.449 78.353 236.327C78.3731 237.422 78.537 238.394 78.7204 239.387C78.8713 240.195 79.0666 241.103 79.2997 241.894C101.69 234.83 154.919 211.121 173.488 176.84C173.488 176.84 148.669 226.04 80.9066 245.436C81.0728 245.72 81.2003 245.962 81.3952 246.154C81.4339 246.196 81.3279 246.383 81.3621 246.437C81.484 246.622 81.7508 246.752 81.8773 246.924C82.5173 247.803 83.2377 248.795 83.8877 249.451C84.0585 249.633 84.2192 249.771 84.4029 249.938C84.5672 250.083 84.8009 250.407 84.9218 250.433C85.0833 250.46 84.9818 250.545 85.0446 250.597C85.1711 250.68 85.3298 250.679 85.4553 250.782C85.6317 250.933 85.6798 251.13 85.8367 251.259C86.0878 251.466 86.2918 251.454 86.5161 251.623C86.6186 251.697 86.5809 251.903 86.7664 251.939C87.0044 251.983 87.3479 252.307 87.5648 252.459C87.7227 252.568 87.7163 252.621 87.8151 252.776C87.8456 252.822 88.055 252.778 88.1067 252.805C88.1141 252.822 88.0726 252.93 88.0883 252.942C88.1068 252.984 88.3199 252.949 88.3716 252.975C88.5387 253.06 88.6762 253.168 88.764 253.298C88.7945 253.344 89.0039 253.301 89.0473 253.331C89.063 253.344 89.0215 253.452 89.0289 253.469C89.0511 253.519 89.2688 253.471 89.3122 253.502C89.3279 253.515 89.2782 253.626 89.2893 253.651C89.2929 253.66 89.712 253.841 89.7 253.836C89.8679 253.901 89.8892 253.882 89.9649 254.007C89.9871 254.057 90.2048 254.01 90.2482 254.04C90.2639 254.053 90.2224 254.161 90.2298 254.177C90.2566 254.215 90.4614 254.184 90.5131 254.211C91.618 254.793 92.8234 255.311 93.9263 255.755C94.1423 255.838 94.3518 255.884 94.6204 255.973C94.624 255.981 94.59 256.106 94.602 256.11C94.6205 256.152 94.841 256.133 94.889 256.152C95.4667 256.332 95.9467 256.517 96.4182 256.615C96.7929 256.697 97.3578 256.982 97.5147 257.022C97.7399 257.081 98.0111 257.02 98.2188 257.106C99.1749 257.467 100.535 257.707 101.713 257.938C101.963 257.986 102.157 258.109 102.398 258.16C102.757 258.229 103.059 258.214 103.394 258.274C104.565 258.469 105.73 258.716 106.917 258.814C108.684 258.963 110.461 259.087 112.2 259.128C121.657 259.344 130.329 257.931 137.759 255.448C138.209 255.298 138.923 255.069 139.118 254.883C139.161 254.844 139.352 254.938 139.402 254.916C139.418 254.908 139.403 254.786 139.42 254.778C139.462 254.739 139.65 254.825 139.703 254.811C139.728 254.8 139.705 254.681 139.722 254.674C139.76 254.627 139.943 254.724 140.005 254.707C140.088 254.67 140.218 254.493 140.321 254.457C140.355 254.442 140.427 254.469 140.467 254.471C140.633 254.487 140.54 254.389 140.628 254.34C140.994 254.157 141.536 254.035 141.689 253.887C141.728 253.84 141.918 253.954 141.973 253.92C142.085 253.86 142.106 253.662 142.289 253.67C142.597 253.692 142.746 253.467 142.903 253.307C142.937 253.272 143.133 253.354 143.195 253.336C143.211 253.329 143.2 253.215 143.21 253.191C143.252 253.152 143.443 253.246 143.493 253.224C143.559 253.194 143.601 252.997 143.668 252.947C143.789 252.883 143.999 252.909 144.107 252.861C144.535 252.66 145.131 252.345 145.336 252.135C145.378 252.096 145.565 252.202 145.619 252.168C145.732 252.107 145.753 251.909 145.935 251.917C146.098 251.925 146.013 251.823 146.091 251.798C146.224 251.739 146.393 251.783 146.535 251.7C146.694 251.61 146.845 251.413 147.003 251.322C147.108 251.266 147.209 251.271 147.301 251.21C147.397 251.157 147.513 251.016 147.618 250.959C147.788 250.873 148.059 250.833 148.217 250.742C148.292 250.709 148.317 250.519 148.396 250.473C148.53 250.394 148.723 250.447 148.84 250.375C148.982 250.292 149.162 250.093 149.308 249.998C149.518 249.865 149.709 249.78 149.926 249.643C151.078 248.901 152.151 248.205 153.199 247.43C153.371 247.303 153.483 247.174 153.667 247.052C154.66 246.421 155.574 245.616 156.358 244.919C156.863 244.466 157.408 244.014 157.794 243.653C158.185 243.28 158.465 243.036 158.758 242.756C159.115 242.419 159.441 242.124 159.721 241.86C159.904 241.689 160.029 241.524 160.208 241.345C160.392 241.154 160.674 240.938 160.703 240.826C160.748 240.547 161.155 240.545 161.199 240.307C161.243 240.049 161.545 240.013 161.679 239.934C161.737 239.908 161.673 239.698 161.716 239.659C161.793 239.565 161.938 239.51 162.032 239.409C162.191 239.229 162.498 239.002 162.519 238.893C162.547 238.732 162.627 238.845 162.671 238.766C162.758 238.648 162.753 238.481 162.868 238.36C162.967 238.246 163.23 238.099 163.337 237.982C163.41 237.9 163.447 237.804 163.512 237.705C163.598 237.607 163.821 237.438 163.847 237.317C163.866 237.16 164.087 237.031 164.178 236.921C164.358 236.702 164.649 236.483 164.691 236.265C164.719 236.104 164.787 236.212 164.843 236.138C165.016 235.922 165.085 235.742 165.193 235.604C165.378 235.372 165.664 235.165 165.703 234.939C165.734 234.786 165.81 234.891 165.858 234.82C166.01 234.603 166.092 234.318 166.222 234.141C166.314 234.011 166.595 233.905 166.691 233.763C166.712 233.744 166.704 233.658 166.709 233.626C166.732 233.476 166.83 233.562 166.865 233.507C167.117 233.066 167.348 232.536 167.575 232.285C167.651 232.211 167.826 232.134 167.895 232.043C167.943 231.972 168.079 231.653 168.088 231.629C168.128 231.383 168.486 231.024 168.608 230.83C168.722 230.661 168.835 230.491 168.958 230.297C169.35 229.704 169.766 228.694 170.181 228.419C170.231 228.397 170.179 228.191 170.218 228.144C170.23 228.129 170.338 228.17 170.363 228.159C170.401 228.132 170.366 227.919 170.393 227.867C170.583 227.534 170.789 227.283 170.894 227.206C170.936 227.188 170.9 226.975 170.927 226.923C171.287 226.256 171.788 225.505 172.023 224.893C172.064 224.785 172.153 224.806 172.179 224.774C172.428 224.305 172.647 223.591 172.902 223.427C172.94 223.401 172.905 223.188 172.935 223.144C173.091 222.846 173.208 222.595 173.318 222.327C173.355 222.231 173.456 222.236 173.482 222.205C173.933 221.297 174.247 220.392 174.654 219.474C174.73 219.311 174.809 219.286 174.847 219.06C174.874 218.919 174.985 218.989 175.003 218.941C175.201 218.514 175.206 218.234 175.386 218.124C175.423 218.097 175.427 217.747 175.433 217.695C175.455 217.566 175.572 217.603 175.585 217.567C175.694 217.32 175.721 217 175.822 216.736C176.403 215.293 176.953 213.914 177.465 212.473C177.759 211.636 178.148 210.766 178.326 209.981C178.375 209.78 178.48 209.703 178.511 209.57C180.167 204.376 181.725 198.49 182.728 192.811C182.783 192.488 182.91 192.282 182.964 191.979C183.188 190.806 183.304 189.66 183.509 188.444C184.33 183.742 185.052 179.063 185.449 174.012L185.402 174.062Z" fill="#95BA32"/>
</g>
<defs>
<clipPath id="clip0_504_2691">
<rect width="458" height="458" fill="white" transform="translate(-141 186.285) rotate(-24)"/>
</clipPath>
</defs>
</svg>
