<svg width="103" height="30" viewBox="0 0 103 30" fill="none" xmlns="http://www.w3.org/2000/svg">
<path d="M20.5972 3.88726C19.6779 3.88726 18.9343 3.1437 18.9343 2.22443C18.9343 1.30517 19.6779 0.5616 20.5972 0.5616H26.2131C27.1324 0.5616 27.876 1.30517 27.876 2.22443C27.876 3.1437 27.1324 3.88726 26.2131 3.88726H20.5972Z" fill="#789F3F"/>
<path d="M0 0H4.14453V20.0858H16.1765V23.6656H0V0Z" fill="#789F3F"/>
<path d="M18.9594 16.0762C18.9594 16.7382 19.0535 17.3814 19.2418 17.9994C19.43 18.6175 19.7093 19.1603 20.0858 19.6246C20.4622 20.0889 20.936 20.4592 21.5101 20.7353C22.0843 21.0113 22.7682 21.1494 23.5652 21.1494C24.6695 21.1494 25.5606 20.9109 26.232 20.4372C26.9065 19.9634 27.4085 19.2481 27.7411 18.3006H31.3209C31.1232 19.2293 30.7781 20.0576 30.2918 20.7855C29.8055 21.5133 29.2188 22.1283 28.5348 22.624C27.8509 23.1228 27.0822 23.4962 26.232 23.7503C25.3817 24.0044 24.4907 24.1299 23.5652 24.1299C22.2161 24.1299 21.0238 23.9103 19.9854 23.4679C18.9469 23.0256 18.0684 22.4075 17.3499 21.6106C16.6315 20.8137 16.0887 19.8662 15.7247 18.7587C15.3608 17.6543 15.1788 16.437 15.1788 15.113C15.1788 13.8988 15.3734 12.7442 15.7593 11.6493C16.1452 10.5543 16.6973 9.59428 17.4158 8.766C18.1343 7.93772 19.0002 7.27887 20.0167 6.79257C21.0333 6.30627 22.1816 6.06468 23.4648 6.06468C24.8138 6.06468 26.0218 6.34705 27.0947 6.90865C28.1646 7.47338 29.0556 8.21695 29.7616 9.14563C30.4675 10.0743 30.982 11.141 31.302 12.3427C31.622 13.5474 31.7036 14.7898 31.5499 16.0731H18.9531L18.9594 16.0762ZM27.7756 13.5914C27.7316 12.9952 27.603 12.4211 27.3959 11.8689C27.1857 11.3167 26.9002 10.8367 26.5332 10.4257C26.1692 10.0178 25.7268 9.68527 25.206 9.43114C24.6883 9.17701 24.1079 9.05151 23.4648 9.05151C22.8216 9.05151 22.2004 9.16759 21.6576 9.39976C21.1148 9.63193 20.6505 9.95194 20.2646 10.3598C19.8787 10.7677 19.5681 11.2508 19.3359 11.803C19.1037 12.3552 18.9782 12.9513 18.9563 13.5945H27.7724L27.7756 13.5914Z" fill="#789F3F"/>
<path d="M30.1631 0H34.3735L38.6498 18.0966H38.7157L43.4877 0H47.7295L52.3698 18.0966H52.4356L56.8437 0H61.0541L54.5252 23.6656H50.3148L45.5741 5.56892H45.5082L40.6703 23.6656H36.394L30.1631 0Z" fill="#789F3F"/>
<path d="M60.16 6.52895H63.7053V9.84207H63.7712C63.881 9.37773 64.0975 8.92594 64.4175 8.48357C64.7375 8.04119 65.1234 7.6396 65.5783 7.27252C66.0301 6.90858 66.5321 6.6168 67.0874 6.39404C67.6396 6.17442 68.2043 6.06148 68.7785 6.06148C69.2209 6.06148 69.5252 6.07403 69.6915 6.09599C69.8578 6.11795 70.0272 6.13991 70.206 6.16187V9.80756C69.9425 9.76363 69.6695 9.72598 69.3934 9.69147C69.1173 9.65696 68.8475 9.64127 68.5808 9.64127C67.9408 9.64127 67.3384 9.7699 66.7737 10.0209C66.2089 10.275 65.7195 10.6515 65.2991 11.1472C64.8787 11.6461 64.5493 12.2579 64.3045 12.9858C64.0598 13.7168 63.9406 14.5545 63.9406 15.5051V23.6593H60.1631V6.52268L60.16 6.52895Z" fill="#789F3F"/>
<path d="M83.6937 19.8568C83.6937 20.3211 83.7533 20.6537 83.8757 20.8513C83.998 21.049 84.2333 21.1494 84.5879 21.1494H84.9863C85.14 21.1494 85.3189 21.1274 85.5165 21.0835V23.7032C85.3848 23.7472 85.2122 23.7974 85.002 23.8538C84.7918 23.9103 84.5753 23.9574 84.3557 24.0013C84.1361 24.0452 83.9133 24.0797 83.6937 24.1017C83.4709 24.1237 83.2858 24.1362 83.1289 24.1362C82.354 24.1362 81.714 23.9825 81.2057 23.6719C80.6975 23.3613 80.3649 22.8216 80.2111 22.0467C79.4582 22.7746 78.5358 23.3048 77.4439 23.6374C76.349 23.9699 75.2948 24.1331 74.2783 24.1331C73.5033 24.1331 72.7629 24.0264 72.057 23.8193C71.3479 23.6091 70.7267 23.3017 70.184 22.8907C69.6412 22.4828 69.2114 21.962 68.8913 21.3314C68.5713 20.7007 68.4113 19.9666 68.4113 19.1258C68.4113 18.0653 68.6058 17.2025 68.9917 16.5405C69.3776 15.8785 69.8859 15.3577 70.5165 14.9812C71.1471 14.6047 71.8531 14.3349 72.6374 14.1686C73.4218 14.0024 74.2124 13.8769 75.0062 13.789C75.6901 13.6572 76.3427 13.5631 76.9608 13.5066C77.5789 13.4502 78.1248 13.356 78.6017 13.2243C79.0754 13.0925 79.4519 12.8886 79.728 12.6125C80.0041 12.3364 80.1421 11.9222 80.1421 11.3701C80.1421 10.8838 80.026 10.4853 79.7939 10.1778C79.5617 9.86723 79.2731 9.63193 78.9311 9.46565C78.5891 9.29936 78.2063 9.18955 77.7891 9.13308C77.3686 9.0766 76.9702 9.05151 76.5968 9.05151C75.5364 9.05151 74.6642 9.27113 73.9771 9.7135C73.2931 10.1559 72.9041 10.8398 72.8162 11.7685H69.0388C69.1047 10.6641 69.3714 9.74801 69.8357 9.01699C70.3 8.28911 70.8899 7.70241 71.6083 7.26004C72.3268 6.81766 73.1394 6.5102 74.043 6.33136C74.9497 6.15567 75.8784 6.06468 76.8259 6.06468C77.6667 6.06468 78.495 6.15253 79.3107 6.33136C80.1296 6.50706 80.8637 6.7957 81.5163 7.19415C82.1689 7.59261 82.6928 8.10714 83.0913 8.73463C83.4897 9.36525 83.6874 10.1339 83.6874 11.0375V19.8536L83.6937 19.8568ZM79.9162 15.0848C79.3421 15.4613 78.633 15.6871 77.7953 15.7656C76.9545 15.844 76.1168 15.9601 75.276 16.1138C74.8775 16.1797 74.4916 16.2738 74.1151 16.3962C73.7387 16.5186 73.4061 16.6848 73.1206 16.8919C72.8319 17.1021 72.606 17.3782 72.4398 17.7202C72.2735 18.0622 72.1919 18.4763 72.1919 18.9626C72.1919 19.383 72.3143 19.7376 72.5558 20.0231C72.7974 20.3117 73.0923 20.5376 73.4343 20.7039C73.7763 20.8702 74.1528 20.9862 74.5607 21.0521C74.9685 21.118 75.3387 21.1525 75.6713 21.1525C76.0917 21.1525 76.5435 21.0961 77.0298 20.9862C77.5161 20.8764 77.9742 20.6882 78.404 20.4215C78.8338 20.158 79.1946 19.8191 79.4801 19.4113C79.7656 19.0034 79.91 18.4983 79.91 17.9022V15.0848H79.9162Z" fill="#789F3F"/>
<path d="M85.3849 6.52901H88.9647V8.8507H89.0305C89.5608 7.85614 90.3012 7.14394 91.2518 6.71412C92.2025 6.28429 93.2284 6.06781 94.3328 6.06781C95.6819 6.06781 96.8584 6.30625 97.8624 6.78C98.8664 7.25689 99.7009 7.90634 100.366 8.73462C101.028 9.56289 101.527 10.5292 101.856 11.6336C102.189 12.738 102.355 13.9208 102.355 15.1789C102.355 16.3272 102.205 17.4441 101.907 18.5265C101.608 19.6089 101.154 20.5658 100.548 21.3941C99.9393 22.2224 99.1738 22.8844 98.2451 23.3832C97.3165 23.8789 96.2215 24.1299 94.9634 24.1299C94.4112 24.1299 93.859 24.0797 93.3068 23.9825C92.7547 23.8821 92.2244 23.7221 91.7162 23.5024C91.2079 23.2828 90.7373 23.0005 90.3075 22.6585C89.8776 22.3165 89.5168 21.9118 89.2313 21.4474H89.1655V30H85.388V6.53215L85.3849 6.52901ZM98.5777 15.113C98.5777 14.3412 98.4773 13.5882 98.2796 12.8603C98.082 12.1324 97.7839 11.4861 97.3855 10.9214C96.987 10.3567 96.4913 9.90487 95.8952 9.56289C95.2991 9.22092 94.612 9.04836 93.8402 9.04836C92.2495 9.04836 91.051 9.60054 90.2447 10.7049C89.4384 11.8093 89.0337 13.2807 89.0337 15.113C89.0337 15.9758 89.1372 16.7758 89.3474 17.5162C89.5576 18.2567 89.8714 18.8904 90.2918 19.4207C90.7122 19.9509 91.2142 20.3713 91.8009 20.6819C92.3876 20.9925 93.0653 21.1462 93.8402 21.1462C94.703 21.1462 95.4309 20.9705 96.027 20.616C96.6231 20.2615 97.1157 19.8034 97.5016 19.2418C97.8875 18.6771 98.1636 18.0371 98.3298 17.3186C98.4961 16.6001 98.5777 15.866 98.5777 15.113Z" fill="#789F3F"/>
<path d="M76.4023 2.09267C76.4023 3.02449 75.6462 3.7806 74.7144 3.7806C73.7826 3.7806 73.0265 3.02449 73.0265 2.09267C73.0265 1.16086 73.7826 0.404739 74.7144 0.404739C75.6462 0.404739 76.4023 1.16086 76.4023 2.09267Z" fill="#789F3F"/>
<path d="M80.5469 2.09267C80.5469 3.02449 79.7908 3.7806 78.859 3.7806C77.9271 3.7806 77.171 3.02449 77.171 2.09267C77.171 1.16086 77.9271 0.404739 78.859 0.404739C79.7908 0.404739 80.5469 1.16086 80.5469 2.09267Z" fill="#789F3F"/>
<path d="M20.5972 3.75238C19.6779 3.75238 18.9343 3.00881 18.9343 2.08954C18.9343 1.17028 19.6779 0.426712 20.5972 0.426712H26.2131C27.1324 0.426712 27.876 1.17028 27.876 2.08954C27.876 3.00881 27.1324 3.75238 26.2131 3.75238H20.5972Z" fill="#789F3F"/>
</svg>
