<svg width="112" height="42" viewBox="0 0 112 42" fill="none" xmlns="http://www.w3.org/2000/svg">
<path d="M110.652 25.2383C110.644 25.2407 110.634 25.245 110.626 25.2478C108.589 28.5185 105.657 31.4194 102.926 34.0878C101.439 35.5404 99.9141 36.9509 98.3514 38.3194C96.9666 39.5318 95.4015 41.3874 93.4945 41.5159C92.4917 41.5852 92.4352 39.8874 92.8413 38.9369L92.8366 38.9311C92.8434 38.9186 92.852 38.9081 92.8589 38.8955C92.9269 38.7437 93.0085 38.6127 93.0999 38.5146C94.0438 37.0922 95.444 36.1876 96.787 35.096C98.3736 33.8069 99.9333 32.4891 101.452 31.121C102.954 29.767 104.442 28.3918 105.908 26.9967C105.96 26.9471 106.01 26.8957 106.062 26.8459C99.7486 29.0606 93.4718 31.2114 86.8813 32.6496C79.1531 34.3362 71.2415 35.3012 63.3253 35.2806C47.0494 35.2358 30.8216 30.6848 17.5802 21.0374C10.3842 15.7918 4.39074 9.1832 0.0840586 1.37809C-0.236588 0.795156 0.427991 -0.590306 0.935878 0.279171C8.96131 14.0053 22.5694 23.6888 37.5256 28.6142C52.7367 33.6196 69.1783 33.5771 84.7573 30.3909C91.47 29.0178 98.3214 27.2104 104.805 24.7245C97.6794 23.6774 90.7291 21.2981 84.3639 17.9558C84.1502 18.1396 83.8677 18.1684 83.5198 17.879C83.1005 17.5278 82.7485 17.2376 82.4002 16.8136C81.6962 15.9525 82.0593 12.3658 83.697 13.3416C92.0202 18.3049 101.1 21.1234 110.689 22.3139C111.923 22.4671 111.626 24.8993 110.652 25.2383Z" fill="#95BA32"/>
</svg>
