<svg width="185" height="36" viewBox="0 0 185 36" fill="none" xmlns="http://www.w3.org/2000/svg">
<path d="M184.564 33.8166C184.574 33.7044 184.587 33.5926 184.597 33.4802C185.196 33.0704 185.033 32.0932 184.715 31.4805C184.823 28.2531 184.519 25.0361 183.685 21.8831C183.11 19.7097 182.35 17.5871 181.402 15.5488C180.581 13.7858 179.679 11.2245 177.8 10.3819C177.175 10.1012 176.702 10.4612 176.669 11.1192C176.588 12.8195 178.067 14.5028 178.772 15.9876C179.649 17.8284 180.387 19.7443 180.954 21.7022C181.619 23.9929 182.105 26.3229 182.405 28.6776C174.724 20.5086 163.587 17.3956 152.52 16.4617C138.641 15.2903 124.373 16.3237 110.542 17.6667C95.5377 19.1245 80.6341 21.5891 65.9547 25.028C58.8001 26.7046 51.7665 28.8139 44.6346 30.5796C37.4876 32.3493 29.9653 33.6049 22.6772 31.915C9.18411 28.7869 0.137376 14.8154 1.60834 1.26638C1.6756 0.64565 0.48 -0.580206 0.335145 0.318143C-1.43157 11.2825 3.94667 22.5829 12.6961 29.1792C24.2366 37.8793 38.5558 34.9814 51.4743 31.5397C81.1656 23.6299 111.63 19.2948 142.382 19.3225C155.991 19.3346 173.056 20.623 182.203 32.1629C174.91 27.6767 166.03 26.0808 157.563 27.2056C156.072 27.4034 157.374 30.6648 158.923 30.3667L158.929 30.3809C167.831 29.0905 176.397 31.1978 184.161 35.5823C185.295 36.2239 185.093 34.5207 184.564 33.8166Z" fill="#95BA32"/>
</svg>
