<svg width="49" height="153" viewBox="0 0 49 153" fill="none" xmlns="http://www.w3.org/2000/svg">
<path d="M3.7561 152.243C3.76331 152.234 3.77385 152.223 3.78141 152.214C8.93872 151.276 14.0767 149.019 18.8198 146.9C21.4018 145.747 23.9496 144.524 26.4633 143.233C28.6903 142.088 31.8213 141.037 32.9389 138.689C33.5287 137.455 31.4091 136.534 30.0034 136.571L29.9985 136.562C29.9792 136.565 29.9616 136.571 29.9423 136.573C29.7162 136.583 29.5096 136.621 29.3397 136.687C27.0678 137.169 25.2223 138.487 23.169 139.639C20.7438 141.001 18.2958 142.314 15.8048 143.55C13.3397 144.772 10.8548 145.967 8.35638 147.122C8.26747 147.163 8.17712 147.201 8.08803 147.242C14.0512 140.364 19.915 133.501 25.0344 125.884C31.0377 116.952 36.22 107.427 40.1579 97.4027C48.2511 76.7912 50.6198 53.9842 45.0461 32.403C42.0137 20.6733 36.6549 9.78243 28.9379 0.426201C28.361 -0.271306 26.2756 -0.124362 27.1212 0.953496C40.4663 17.9788 45.9019 40.0419 44.6436 61.4279C43.3587 83.1764 35.0722 103.954 23.2407 122.066C18.1423 129.87 12.4252 137.632 6.03427 144.589C8.27756 135.051 8.74797 125.067 7.70723 115.342C8.04675 115.163 8.22467 114.82 8.03272 114.235C7.79838 113.529 7.60751 112.938 7.2456 112.286C6.5088 110.964 1.78977 109.627 2.20414 112.187C4.31511 125.202 3.33412 138.099 0.0383052 150.825C-0.385677 152.463 2.83962 153.305 3.7561 152.243Z" fill="#95BA32"/>
</svg>
