<svg width="54" height="114" viewBox="0 0 54 114" fill="none" xmlns="http://www.w3.org/2000/svg">
<path d="M32.5318 93.5253C53.7969 68.9182 60.4414 33.1902 46.5359 2.0416C45.5748 -0.110747 41.2332 -1.26266 42.3756 2.20646C54.2603 38.1254 42.2561 76.3443 12.2702 97.8636C14.4034 91.7796 16.5355 85.7028 18.6688 79.6188C19.8469 76.2671 12.7047 69.7144 11.2657 73.5985C7.56379 83.6418 3.84861 93.6756 0.168249 103.722C-0.181216 104.675 0.0410972 105.872 0.586725 107.025C0.960684 110.144 4.67125 114.351 7.29417 113.443C10.4161 112.356 13.526 111.252 16.6431 110.149C23.8596 108.894 30.7488 106.454 37.3195 102.728C40.7939 100.763 36.0808 93.4107 32.5318 93.5253Z" fill="#95BA32"/>
</svg>
