<svg width="267" height="78" viewBox="0 0 267 78" fill="none" xmlns="http://www.w3.org/2000/svg">
<path d="M53.5526 10.1069C51.1625 10.1069 49.2292 8.17361 49.2292 5.78352C49.2292 3.39344 51.1625 1.46016 53.5526 1.46016H68.1541C70.5442 1.46016 72.4775 3.39344 72.4775 5.78352C72.4775 8.17361 70.5442 10.1069 68.1541 10.1069H53.5526Z" fill="white"/>
<path d="M0 0H10.7758V52.223H42.059V61.5304H0V0Z" fill="white"/>
<path d="M49.2945 41.7981C49.2945 43.5193 49.5392 45.1915 50.0286 46.7985C50.5181 48.4055 51.2441 49.8167 52.2229 51.024C53.2018 52.2313 54.4336 53.1938 55.9263 53.9117C57.4191 54.6295 59.1974 54.9884 61.2694 54.9884C64.1407 54.9884 66.4574 54.3685 68.2031 53.1367C69.9569 51.905 71.262 50.0451 72.1267 47.5816H81.4342C80.9203 49.9962 80.023 52.1497 78.7586 54.0422C77.4942 55.9347 75.9688 57.5335 74.1905 58.8223C72.4122 60.1194 70.4137 61.0901 68.2031 61.7508C65.9924 62.4116 63.6758 62.7378 61.2694 62.7378C57.7617 62.7378 54.662 62.1668 51.9619 61.0167C49.2618 59.8665 46.9778 58.2595 45.1098 56.1875C43.2418 54.1156 41.8305 51.6521 40.8843 48.7726C39.9381 45.9012 39.4649 42.7362 39.4649 39.2938C39.4649 36.1369 39.9707 33.135 40.974 30.2881C41.9774 27.4413 43.4131 24.9451 45.2811 22.7916C47.1491 20.6381 49.4005 18.925 52.0435 17.6607C54.6864 16.3963 57.672 15.7682 61.0083 15.7682C64.516 15.7682 67.6565 16.5023 70.4463 17.9625C73.2279 19.4308 75.5446 21.3641 77.38 23.7786C79.2154 26.1932 80.5532 28.9667 81.3852 32.0909C82.2173 35.2233 82.4294 38.4536 82.0297 41.7899H49.2782L49.2945 41.7981ZM72.2164 35.3375C72.1022 33.7876 71.7678 32.2948 71.2294 30.8592C70.6829 29.4235 69.9406 28.1754 68.9862 27.1068C68.0399 26.0464 66.8897 25.1817 65.5356 24.521C64.1897 23.8602 62.6806 23.5339 61.0083 23.5339C59.3361 23.5339 57.7209 23.8357 56.3097 24.4394C54.8985 25.043 53.6912 25.8751 52.6879 26.9355C51.6846 27.996 50.877 29.2522 50.2733 30.6879C49.6697 32.1235 49.3434 33.6734 49.2863 35.3457H72.2083L72.2164 35.3375Z" fill="white"/>
<path d="M78.4241 0H89.3712L100.49 47.0513H100.661L113.068 0H124.097L136.161 47.0513H136.333L147.794 0H158.741L141.765 61.5304H130.818L118.493 14.4792H118.321L105.743 61.5304H94.6245L78.4241 0Z" fill="white"/>
<path d="M156.416 16.9753H165.634V25.5894H165.805C166.091 24.3821 166.653 23.2074 167.485 22.0573C168.317 20.9071 169.321 19.863 170.504 18.9086C171.678 17.9623 172.983 17.2037 174.427 16.6245C175.863 16.0535 177.331 15.7598 178.824 15.7598C179.974 15.7598 180.765 15.7925 181.198 15.8496C181.63 15.9067 182.071 15.9638 182.536 16.0209V25.4996C181.85 25.3854 181.141 25.2875 180.423 25.1978C179.705 25.1081 179.003 25.0673 178.31 25.0673C176.646 25.0673 175.08 25.4018 173.612 26.0543C172.143 26.7151 170.871 27.694 169.778 28.9828C168.685 30.2798 167.828 31.8705 167.192 33.763C166.555 35.6636 166.245 37.8416 166.245 40.3133V61.5141H156.424V16.959L156.416 16.9753Z" fill="white"/>
<path d="M217.604 51.6276C217.604 52.8349 217.759 53.6996 218.077 54.2135C218.395 54.7274 219.007 54.9884 219.928 54.9884H220.964C221.364 54.9884 221.829 54.9313 222.343 54.8171V61.6284C222 61.7427 221.552 61.8732 221.005 62.02C220.459 62.1668 219.896 62.2892 219.325 62.4034C218.754 62.5176 218.175 62.6073 217.604 62.6644C217.024 62.7215 216.543 62.7542 216.135 62.7542C214.12 62.7542 212.456 62.3545 211.135 61.5469C209.813 60.7393 208.949 59.3363 208.549 57.3214C206.591 59.2139 204.193 60.5925 201.354 61.4572C198.507 62.3218 195.767 62.746 193.124 62.746C191.109 62.746 189.184 62.4687 187.348 61.9303C185.505 61.3837 183.89 60.5843 182.478 59.5157C181.067 58.4553 179.95 57.1012 179.118 55.4615C178.285 53.8219 177.869 51.9131 177.869 49.727C177.869 46.9698 178.375 44.7265 179.379 43.0054C180.382 41.2842 181.703 39.9301 183.343 38.9512C184.983 37.9723 186.818 37.2708 188.857 36.8385C190.897 36.4061 192.952 36.0798 195.016 35.8514C196.794 35.5088 198.491 35.2641 200.098 35.1173C201.705 34.9704 203.124 34.7257 204.364 34.3831C205.596 34.0405 206.575 33.5103 207.293 32.7924C208.011 32.0746 208.37 30.9978 208.37 29.5622C208.37 28.2978 208.068 27.2618 207.464 26.4624C206.86 25.6548 206.11 25.043 205.221 24.6107C204.332 24.1783 203.336 23.8928 202.252 23.746C201.159 23.5992 200.123 23.5339 199.152 23.5339C196.395 23.5339 194.127 24.1049 192.34 25.2551C190.562 26.4053 189.551 28.1836 189.322 30.5981H179.501C179.672 27.7268 180.366 25.3448 181.573 23.4442C182.78 21.5517 184.314 20.0263 186.182 18.8761C188.05 17.7259 190.162 16.9265 192.512 16.4615C194.869 16.0047 197.284 15.7682 199.747 15.7682C201.933 15.7682 204.087 15.9966 206.208 16.4615C208.337 16.9184 210.246 17.6688 211.942 18.7048C213.639 19.7408 215.001 21.0786 216.037 22.71C217.073 24.3496 217.587 26.3482 217.587 28.6975V51.6195L217.604 51.6276ZM207.782 39.2204C206.289 40.1993 204.446 40.7866 202.268 40.9905C200.082 41.1944 197.904 41.4963 195.718 41.896C194.682 42.0673 193.678 42.312 192.699 42.6301C191.721 42.9483 190.856 43.3806 190.114 43.919C189.363 44.4655 188.776 45.1834 188.343 46.0725C187.911 46.9617 187.699 48.0384 187.699 49.3028C187.699 50.3959 188.017 51.3176 188.645 52.06C189.273 52.8104 190.04 53.3977 190.929 53.8301C191.818 54.2624 192.797 54.5642 193.858 54.7355C194.918 54.9068 195.881 54.9966 196.745 54.9966C197.838 54.9966 199.013 54.8497 200.278 54.5642C201.542 54.2787 202.733 53.7893 203.85 53.0959C204.968 52.4107 205.906 51.5297 206.648 50.4693C207.391 49.4088 207.766 48.0955 207.766 46.5456V39.2204H207.782Z" fill="white"/>
<path d="M222.001 16.9754H231.308V23.0118H231.479C232.858 20.426 234.783 18.5743 237.255 17.4567C239.726 16.3392 242.394 15.7763 245.265 15.7763C248.773 15.7763 251.832 16.3963 254.442 17.628C257.052 18.8679 259.222 20.5565 260.952 22.71C262.673 24.8635 263.97 27.376 264.826 30.2473C265.691 33.1187 266.123 36.194 266.123 39.4651C266.123 42.4506 265.732 45.3546 264.957 48.1689C264.182 50.9832 262.999 53.4711 261.425 55.6246C259.842 57.7782 257.852 59.4994 255.437 60.7964C253.023 62.0852 250.176 62.7378 246.905 62.7378C245.469 62.7378 244.033 62.6073 242.598 62.3544C241.162 62.0934 239.784 61.6774 238.462 61.1063C237.141 60.5353 235.917 59.8012 234.799 58.912C233.682 58.0229 232.744 56.9706 232.001 55.7633H231.83V78.0001H222.009V16.9836L222.001 16.9754ZM256.302 39.2938C256.302 37.2871 256.041 35.3293 255.527 33.4368C255.013 31.5443 254.238 29.8639 253.202 28.3956C252.166 26.9273 250.877 25.7527 249.328 24.8635C247.778 23.9744 245.991 23.5257 243.985 23.5257C239.849 23.5257 236.733 24.9614 234.636 27.8328C232.54 30.7041 231.488 34.5299 231.488 39.2938C231.488 41.537 231.757 43.6171 232.303 45.5422C232.85 47.4674 233.666 49.1151 234.759 50.4937C235.852 51.8723 237.157 52.9654 238.682 53.773C240.208 54.5805 241.97 54.9802 243.985 54.9802C246.228 54.9802 248.12 54.5234 249.67 53.6016C251.22 52.6799 252.501 51.4889 253.504 50.0288C254.507 48.5604 255.225 46.8964 255.658 45.0283C256.09 43.1603 256.302 41.2515 256.302 39.2938Z" fill="white"/>
<path d="M198.646 5.44095C198.646 7.86366 196.68 9.82956 194.258 9.82956C191.835 9.82956 189.869 7.86366 189.869 5.44095C189.869 3.01823 191.835 1.05232 194.258 1.05232C196.68 1.05232 198.646 3.01823 198.646 5.44095Z" fill="white"/>
<path d="M209.422 5.44095C209.422 7.86366 207.456 9.82956 205.033 9.82956C202.611 9.82956 200.645 7.86366 200.645 5.44095C200.645 3.01823 202.611 1.05232 205.033 1.05232C207.456 1.05232 209.422 3.01823 209.422 5.44095Z" fill="white"/>
<path d="M53.5526 9.75618C51.1625 9.75618 49.2292 7.8229 49.2292 5.43282C49.2292 3.04273 51.1625 1.10945 53.5526 1.10945H68.1541C70.5442 1.10945 72.4775 3.04273 72.4775 5.43282C72.4775 7.8229 70.5442 9.75618 68.1541 9.75618H53.5526Z" fill="white"/>
</svg>
