<svg width="58" height="54" viewBox="0 0 58 54" fill="none" xmlns="http://www.w3.org/2000/svg">
<path d="M9.10137 0H48.1681C50.6725 0 52.9496 1.02497 54.596 2.67368C56.2447 4.32239 57.2696 6.59959 57.2696 9.10396V44.8985C57.2696 47.396 56.247 49.6708 54.596 51.3217L54.5913 51.3263C52.9379 52.9773 50.6631 54 48.1682 54H9.10148C6.60405 54 4.32917 52.9773 2.67832 51.3263L2.67368 51.3217C1.02266 49.6683 0 47.3935 0 44.8985V9.10396C0 6.60422 1.02497 4.32934 2.67368 2.68081L2.67832 2.67617C4.32703 1.02746 6.60191 0.00248619 9.10148 0.00248619L9.10137 0ZM29.9392 24.3718L32.9607 29.9881L39.2289 31.1244C40.0313 31.2682 40.5669 32.0381 40.4232 32.8404C40.3698 33.1372 40.233 33.3946 40.0382 33.5986L35.63 38.2109L36.4857 44.5302C36.5946 45.3395 36.0265 46.0862 35.2149 46.1951C34.9158 46.2346 34.6259 46.1835 34.3755 46.0606L28.6315 43.2942L22.8899 46.0606C22.1548 46.4154 21.2667 46.107 20.9119 45.3696C20.7751 45.0867 20.738 44.7783 20.7844 44.4907L21.6354 38.2088L17.2249 33.5989C16.6614 33.0076 16.6846 32.0684 17.2782 31.505C17.5148 31.28 17.8069 31.1478 18.1107 31.1084L24.3071 29.9838L27.3286 24.3674C27.7158 23.6463 28.6133 23.3772 29.3344 23.7645C29.6011 23.9083 29.8051 24.1193 29.9373 24.3674L29.9392 24.3718ZM30.6882 32.0149L28.6337 28.198L26.5792 32.0149C26.3705 32.3975 25.9971 32.685 25.5357 32.7685L21.2689 33.543L24.2696 36.6805C24.5664 36.9935 24.7264 37.4364 24.6638 37.8979L24.0817 42.1972L27.9867 40.3142C28.3786 40.1264 28.8517 40.1101 29.2738 40.3142L33.1788 42.1972L32.5967 37.8979C32.5387 37.4689 32.6686 37.0191 32.9909 36.6805L35.9916 33.543L31.8083 32.7848C31.3468 32.7291 30.9201 32.4555 30.6836 32.0172L30.6882 32.0149ZM19.6964 7.90072H37.5726C37.8045 7.2213 38.1895 6.6114 38.688 6.11286C39.5228 5.27108 40.6823 4.75165 41.96 4.75165C43.2307 4.75165 44.3902 5.27108 45.2319 6.11286C46.0737 6.94764 46.5931 8.10713 46.5931 9.38481C46.5931 10.6625 46.0737 11.8197 45.2366 12.6591L45.1392 12.7472C44.3067 13.5333 43.1866 14.0156 41.9622 14.0156C40.6846 14.0156 39.5274 13.4962 38.688 12.659L38.5999 12.5617C38.1454 12.0816 37.7929 11.5066 37.5772 10.8688H19.701C19.4714 11.5506 19.0865 12.1605 18.5879 12.659C17.7508 13.4962 16.5914 14.0156 15.3137 14.0156C14.0429 14.0156 12.8858 13.4962 12.0463 12.659L12.0417 12.6544C11.2022 11.8126 10.6851 10.6555 10.6851 9.38705C10.6851 8.11631 11.2046 6.95919 12.0417 6.11741L12.0463 6.11278C12.8881 5.27331 14.0452 4.7562 15.3137 4.7562C16.5914 4.7562 17.7485 5.27563 18.5879 6.11278L18.6761 6.21017C19.1306 6.69018 19.483 7.26524 19.6987 7.90299L19.6964 7.90072ZM43.1356 8.20681C42.8388 7.90767 42.4214 7.72216 41.9599 7.72216C41.5008 7.72216 41.0833 7.90767 40.7842 8.20913C40.4828 8.50595 40.2972 8.92333 40.2972 9.38483C40.2972 9.81846 40.4596 10.2127 40.7262 10.5048L40.7842 10.5605C41.0834 10.8596 41.5007 11.0475 41.9599 11.0475C42.3959 11.0475 42.7901 10.8851 43.0822 10.6185L43.1379 10.5605C43.437 10.2614 43.6249 9.84397 43.6249 9.38479C43.6249 8.92561 43.4394 8.50823 43.1379 8.20446L43.1356 8.20681ZM16.4866 8.20913C16.1875 7.90999 15.7701 7.72216 15.3109 7.72216C14.8472 7.72216 14.4321 7.90768 14.1352 8.20217L14.1306 8.20681C13.8338 8.50363 13.6506 8.92102 13.6506 9.38251C13.6506 9.84629 13.8361 10.2614 14.1306 10.5582L14.1352 10.5628C14.4321 10.8597 14.8494 11.0429 15.3109 11.0429C15.7701 11.0429 16.1875 10.8573 16.4866 10.5559C16.7858 10.2567 16.9736 9.83937 16.9736 9.38019C16.9736 8.94656 16.8113 8.55005 16.5446 8.25786L16.4866 8.20221L16.4866 8.20913ZM2.96951 15.8012H21.9309C22.7494 15.8012 23.415 16.4667 23.415 17.2853C23.415 18.1038 22.7494 18.7693 21.9309 18.7693H2.96951V44.8918C2.96951 46.5823 3.65825 48.115 4.76663 49.2235L4.77127 49.2281C5.8797 50.3366 7.41248 51.0252 9.10298 51.0252H48.1697C49.8602 51.0252 51.3929 50.3365 52.5014 49.2281L52.506 49.2235C53.6145 48.115 54.3031 46.5823 54.3031 44.8918V18.7693H35.3418C34.5232 18.7693 33.8577 18.1038 33.8577 17.2853C33.8577 16.4667 34.5232 15.8012 35.3418 15.8012H54.3031V9.10196C54.3031 7.41615 53.6121 5.88332 52.5013 4.77025C51.3906 3.65949 49.8555 2.96844 48.1696 2.96844H9.10293C7.41474 2.96844 5.87965 3.65718 4.7689 4.76787C3.65814 5.88094 2.96946 7.41372 2.96946 9.1019L2.96951 15.8012ZM27.9023 18.7693C27.0837 18.7693 26.4182 18.1038 26.4182 17.2853C26.4182 16.4667 27.0837 15.8012 27.9023 15.8012H29.3702C30.1887 15.8012 30.8543 16.4667 30.8543 17.2853C30.8543 18.1038 30.1887 18.7693 29.3702 18.7693H27.9023Z" fill="#95BA32"/>
</svg>
