<svg width="52" height="54" viewBox="0 0 52 54" fill="none" xmlns="http://www.w3.org/2000/svg">
<path fill-rule="evenodd" clip-rule="evenodd" d="M49.6289 8.48118L42.3739 18.0243C41.378 19.3339 40.8851 20.7779 40.8676 22.4235L40.7008 39.6048C38.2285 42.5525 35.1165 45.453 31.4241 48.2613V39.2759C31.4241 38.1182 31.7153 37.1298 32.3427 36.1613L36.7644 29.3174C37.4864 28.1945 37.2374 26.7381 36.1843 25.9289L36.0723 25.8393C34.9992 25.0102 33.4681 25.1696 32.5867 26.2078L32.0365 26.8501C31.9593 22.7247 31.6008 18.3949 30.2688 14.1004L26.736 2.69047C26.4646 1.81908 27.7069 1.22902 28.1252 1.99333L33.6299 12.0865C33.7743 12.3504 33.9411 12.6019 34.1228 12.826C34.8797 14.0111 36.2017 14.7928 37.703 14.7928C38.3752 14.7928 39.0126 14.6335 39.5777 14.3546C40.113 14.1455 40.5785 13.7695 40.9719 13.4285L48.2321 7.16943C48.5906 6.8632 49.1309 6.88312 49.4644 7.21674L49.5516 7.30636C49.8703 7.62504 49.9028 8.12515 49.6289 8.48118ZM47.1965 23.6483C46.9624 21.3006 46.0587 19.3138 44.5724 17.8424L43.6786 19.0125C42.8918 20.0507 42.5209 21.1387 42.5085 22.4358L42.3566 37.4908C45.8969 32.6335 47.6073 27.7842 47.1965 23.6483ZM25.7278 52.2198C26.7859 51.5451 27.8141 50.853 28.8075 50.1633L29.7884 49.4661V39.2761C29.7884 37.7922 30.1644 36.515 30.9686 35.2677L35.3902 28.4237C35.6466 28.0279 35.557 27.51 35.1836 27.2237L35.0715 27.1341C34.6906 26.8403 34.1454 26.8976 33.8317 27.2661L29.049 32.8778L28.6357 33.2736H28.6332C27.0772 34.9268 24.4705 34.9616 22.8796 33.3359L22.3991 32.8753L17.6165 27.2636C17.3028 26.8951 16.76 26.8378 16.3766 27.1316L16.2646 27.2212C15.8911 27.5075 15.8015 28.0229 16.0579 28.4212L20.4796 35.2652C21.2862 36.5125 21.6597 37.7897 21.6597 39.2736V49.4636L22.6506 50.1682C23.649 50.8603 24.6747 51.5451 25.7278 52.2198ZM10.755 39.6046L10.5882 22.4234C10.5732 20.7777 10.0803 19.3361 9.08191 18.0241L1.82688 8.48099C1.55301 8.12497 1.58538 7.62451 1.90406 7.30334L1.9912 7.21372C2.32232 6.8801 2.86508 6.8577 3.2211 7.16641L10.4812 13.4254C10.6157 13.5425 10.8572 13.7118 11.1933 13.9333C11.9053 14.4686 12.7916 14.7898 13.7502 14.7898C15.3162 14.7898 16.683 13.9384 17.4224 12.6786C17.5494 12.4869 17.6764 12.3574 17.8233 12.086L23.3279 1.99286C23.7487 1.22854 24.9886 1.81609 24.7172 2.69L21.1818 14.1C19.8499 18.3947 19.4914 22.7215 19.4142 26.8496L18.864 26.2073C17.9826 25.1691 16.4514 25.0073 15.3784 25.8388L15.2663 25.9285C14.2132 26.7376 13.9642 28.1941 14.6862 29.3169L19.1079 36.1608C19.7353 37.1293 20.0266 38.1202 20.0266 39.2754V48.2609C16.3394 45.4525 13.2273 42.5523 10.755 39.6046ZM4.25968 23.6483C3.84889 27.7812 5.55683 32.6338 9.09709 37.4911L8.9502 22.4361C8.93775 21.139 8.56679 20.051 7.78008 19.0128L6.88631 17.8427C5.39751 19.3141 4.49372 21.3006 4.25968 23.6483ZM13.7531 7.92349C12.3116 7.92349 11.1389 9.09361 11.1389 10.5377C11.1389 11.9792 12.3115 13.1519 13.7531 13.1519C15.1946 13.1519 16.3698 11.9817 16.3698 10.5377C16.3673 9.09616 15.1946 7.92349 13.7531 7.92349ZM23.3804 30.5573C23.3804 31.8469 24.4335 32.9051 25.7281 32.9051C27.0228 32.9051 28.0759 31.8444 28.0759 30.5573C28.0759 29.2601 27.0228 28.2095 25.7281 28.2095C24.4335 28.207 23.3804 29.2601 23.3804 30.5573ZM29.617 29.6934L30.4212 28.7522C30.4137 25.1198 30.2668 21.3079 29.4602 17.4965C28.3722 18.0816 27.2842 18.7787 26.2111 19.5729C25.9198 19.787 25.529 19.787 25.2377 19.5729C24.1671 18.7787 23.0767 18.0816 21.9886 17.4965C21.1845 21.3082 21.0351 25.1225 21.0276 28.7522L21.8318 29.6934C22.2252 27.9083 23.8186 26.5713 25.7207 26.5713C27.6303 26.5688 29.2237 27.9083 29.617 29.6934ZM25.7281 4.96074L22.748 14.5784C22.616 15.0042 22.4965 15.4299 22.3845 15.8482C23.5048 16.4258 24.6252 17.1179 25.7281 17.8972C26.8311 17.1154 27.9539 16.4258 29.0718 15.8482C28.9597 15.4299 28.8402 15.0042 28.7083 14.5784L25.7281 4.96074ZM37.7034 7.92343C36.2619 7.92343 35.0893 9.09355 35.0893 10.5376C35.0893 11.9791 36.2619 13.1518 37.7034 13.1518C39.1449 13.1518 40.3176 11.9817 40.3176 10.5376C40.3201 9.0961 39.1475 7.92343 37.7034 7.92343ZM39.8346 1.86854C38.5375 2.20963 37.2553 3.8279 37.0138 6.34246C37.3001 6.29765 37.6835 6.27026 37.9823 6.29267C38.7043 3.83783 40.1483 2.39383 42.4786 2.72494C41.6347 1.93819 40.7234 1.62953 39.8346 1.86854ZM50.7169 6.1533L50.6297 6.06367C49.6961 5.12255 48.1724 5.06034 47.1666 5.92425L41.9532 10.4206C41.9084 8.78987 40.9449 7.38819 39.5656 6.71349C39.9216 5.51347 40.4096 4.7765 41.0519 4.48274C41.7988 4.14165 42.8967 4.34332 44.3109 5.0952C45.0155 5.46865 45.7972 4.69436 45.4138 3.98728C41.7615 -2.81203 35.4749 0.210438 35.3379 7.00479C34.6433 7.47036 34.0931 8.14005 33.7694 8.92928L29.5618 1.21153C28.9768 0.13848 27.6522 -0.299703 26.5443 0.215664C26.2082 0.377495 25.9792 0.516917 25.7277 0.780821C25.4763 0.516917 25.2472 0.377495 24.9086 0.215664C23.8007 -0.299696 22.4762 0.138487 21.8911 1.21153L17.6835 8.92673C17.0462 7.37815 15.525 6.28521 13.7498 6.28521C11.4444 6.28521 9.56471 8.12507 9.49995 10.4181L4.28905 5.92173C3.28075 5.05779 1.75951 5.12006 0.825911 6.06115L0.738771 6.15077C-0.157479 7.06449 -0.249641 8.4587 0.524658 9.47446L5.88744 16.5274C4.0326 18.2777 2.91226 20.6678 2.63093 23.4836C2.12303 28.5849 4.49074 34.5997 9.30087 40.413C9.30336 40.413 9.30585 40.4205 9.30833 40.4205C12.1715 43.8787 15.8788 47.2721 20.3403 50.5213C21.8291 51.6267 23.7985 52.9338 25.2923 53.8749C25.5587 54.0417 25.8998 54.0417 26.1662 53.8749C27.9189 52.7719 29.2857 51.8309 30.8891 50.6906L31.1032 50.5313C35.5672 47.2822 39.2792 43.8887 42.1448 40.426C42.1473 40.426 42.1498 40.4185 42.1522 40.4185C46.9623 34.6051 49.3327 28.5898 48.8222 23.489C48.5408 20.6732 47.4205 18.2881 45.5657 16.5329L50.9285 9.47994C51.7027 8.46164 51.6131 7.06701 50.7169 6.1533Z" fill="#95BA32"/>
</svg>
