<svg width="512" height="512" viewBox="0 0 512 512" fill="none" xmlns="http://www.w3.org/2000/svg">
<path d="M140.387 230.116C136.776 230.116 133.849 227.189 133.849 223.578C133.849 219.967 136.776 217.04 140.387 217.04H162.484C166.096 217.04 169.023 219.967 169.023 223.578C169.023 227.189 166.096 230.116 162.484 230.116H140.387Z" fill="white"/>
<path d="M256 511.996C221.445 511.996 187.917 505.23 156.351 491.875C125.864 478.981 98.4899 460.526 74.9822 437.018C51.4745 413.506 33.015 386.133 20.1207 355.645C6.77027 324.079 0 290.555 0 255.996C0 221.442 6.77027 187.914 20.1207 156.351C33.015 125.864 51.4745 98.4861 74.9822 74.9784C98.4899 51.4745 125.864 33.015 156.351 20.1207C187.917 6.77025 221.445 0 256 0C290.555 0 324.083 6.77025 355.649 20.1207C386.133 33.015 413.51 51.4745 437.018 74.9784C460.526 98.4861 478.985 125.864 491.879 156.351C505.23 187.914 512 221.442 512 255.996C512 290.555 505.23 324.079 491.879 355.645C478.985 386.133 460.526 413.506 437.018 437.018C413.51 460.526 386.133 478.981 355.649 491.875C324.083 505.23 290.555 511.996 256 511.996Z" fill="#95BA32"/>
<path d="M59.3438 214.828H75.6479V293.863H122.986V307.947H59.3438V214.828Z" fill="white"/>
<path d="M133.922 278.081C133.922 280.689 134.291 283.213 135.029 285.646C135.766 288.082 136.872 290.211 138.351 292.036C139.826 293.86 141.692 295.316 143.95 296.404C146.208 297.491 148.9 298.034 152.028 298.034C156.37 298.034 159.859 297.103 162.513 295.233C165.158 293.362 167.135 290.557 168.439 286.82H182.504C181.721 290.47 180.375 293.731 178.467 296.601C176.555 299.471 174.255 301.881 171.564 303.839C168.872 305.797 165.854 307.275 162.513 308.271C159.167 309.271 155.674 309.773 152.028 309.773C146.729 309.773 142.038 308.902 137.959 307.165C133.877 305.424 130.425 302.991 127.605 299.863C124.784 296.73 122.655 292.994 121.226 288.645C119.793 284.3 119.074 279.518 119.074 274.299C119.074 269.52 119.834 264.974 121.355 260.671C122.872 256.367 125.042 252.585 127.867 249.323C130.687 246.062 134.093 243.477 138.089 241.561C142.084 239.653 146.6 238.695 151.637 238.695C156.932 238.695 161.684 239.805 165.896 242.021C170.108 244.237 173.605 247.172 176.384 250.825C179.159 254.474 181.181 258.671 182.439 263.408C183.698 268.148 184.021 273.04 183.416 278.081H133.922ZM168.568 268.3C168.393 265.951 167.892 263.693 167.07 261.518C166.246 259.344 165.117 257.455 163.683 255.843C162.25 254.239 160.513 252.935 158.476 251.931C156.434 250.935 154.153 250.43 151.637 250.43C149.033 250.43 146.665 250.89 144.54 251.802C142.411 252.714 140.586 253.976 139.066 255.584C137.549 257.192 136.332 259.085 135.42 261.256C134.508 263.43 134.01 265.78 133.922 268.3H168.568Z" fill="white"/>
<path d="M178.022 214.828H194.585L211.41 286.036H211.668L230.451 214.828H247.143L265.401 286.036H265.663L283.009 214.828H299.572L273.882 307.947H257.315L238.666 236.739H238.404L219.366 307.947H202.541L178.022 214.828Z" fill="white"/>
<path d="M296.052 240.521H310.007V253.563H310.269C310.702 251.735 311.55 249.956 312.812 248.215C314.07 246.478 315.591 244.892 317.374 243.456C319.157 242.019 321.133 240.871 323.308 240C325.482 239.13 327.698 238.692 329.96 238.692C331.697 238.692 332.895 238.738 333.545 238.825C334.199 238.913 334.871 239 335.567 239.088V253.43C334.526 253.259 333.461 253.107 332.374 252.978C331.287 252.845 330.219 252.78 329.177 252.78C326.657 252.78 324.288 253.282 322.068 254.278C319.852 255.282 317.917 256.757 316.267 258.714C314.614 260.672 313.31 263.082 312.356 265.952C311.394 268.822 310.919 272.125 310.919 275.866V307.946H296.052V240.521Z" fill="white"/>
<path d="M388.647 292.948C388.647 294.777 388.886 296.08 389.365 296.86C389.841 297.643 390.776 298.034 392.167 298.034H393.733C394.341 298.034 395.037 297.951 395.82 297.776V308.078C395.299 308.249 394.623 308.446 393.798 308.663C392.973 308.88 392.125 309.074 391.255 309.252C390.384 309.423 389.514 309.553 388.647 309.64C387.776 309.727 387.039 309.773 386.431 309.773C383.386 309.773 380.866 309.161 378.866 307.945C376.863 306.728 375.563 304.599 374.954 301.558C371.997 304.424 368.367 306.511 364.063 307.815C359.76 309.119 355.605 309.773 351.61 309.773C348.565 309.773 345.653 309.359 342.871 308.534C340.084 307.709 337.633 306.492 335.5 304.881C333.371 303.276 331.676 301.227 330.418 298.753C329.155 296.274 328.524 293.385 328.524 290.078C328.524 285.908 329.285 282.513 330.805 279.906C332.326 277.298 334.329 275.256 336.804 273.778C339.282 272.299 342.065 271.235 345.152 270.581C348.238 269.931 351.348 269.429 354.476 269.083C357.172 268.558 359.738 268.194 362.17 267.973C364.607 267.756 366.759 267.384 368.629 266.867C370.495 266.342 371.974 265.54 373.061 264.449C374.149 263.366 374.692 261.735 374.692 259.561C374.692 257.648 374.236 256.086 373.324 254.866C372.411 253.649 371.279 252.714 369.933 252.06C368.583 251.41 367.086 250.977 365.432 250.757C363.778 250.54 362.216 250.433 360.737 250.433C356.563 250.433 353.127 251.3 350.436 253.041C347.737 254.778 346.216 257.474 345.87 261.127H331.003C331.261 256.778 332.307 253.17 334.131 250.3C335.956 247.434 338.283 245.131 341.111 243.39C343.935 241.652 347.128 240.436 350.698 239.736C354.26 239.041 357.913 238.695 361.65 238.695C364.953 238.695 368.215 239.041 371.431 239.736C374.647 240.436 377.539 241.565 380.105 243.127C382.667 244.693 384.735 246.716 386.298 249.194C387.864 251.673 388.647 254.691 388.647 258.257V292.948ZM373.78 274.169C371.518 275.648 368.735 276.538 365.432 276.842C362.125 277.15 358.825 277.606 355.522 278.21C353.956 278.472 352.431 278.845 350.956 279.32C349.478 279.799 348.174 280.453 347.045 281.274C345.912 282.103 345.022 283.19 344.369 284.536C343.719 285.885 343.392 287.516 343.392 289.428C343.392 291.082 343.867 292.469 344.829 293.602C345.783 294.731 346.934 295.624 348.284 296.274C349.63 296.924 351.108 297.38 352.716 297.643C354.324 297.905 355.784 298.034 357.088 298.034C358.738 298.034 360.521 297.818 362.433 297.38C364.345 296.947 366.15 296.21 367.846 295.164C369.541 294.123 370.952 292.796 372.084 291.188C373.213 289.58 373.78 287.603 373.78 285.254V274.169Z" fill="white"/>
<path d="M395.298 240.521H409.382V249.652H409.644C411.731 245.74 414.643 242.935 418.384 241.239C422.12 239.544 426.161 238.692 430.51 238.692C435.813 238.692 440.443 239.631 444.4 241.502C448.357 243.372 451.638 245.934 454.246 249.192C456.857 252.453 458.811 256.259 460.115 260.607C461.419 264.952 462.073 269.601 462.073 274.562C462.073 279.082 461.487 283.473 460.309 287.734C459.138 291.992 457.355 295.755 454.964 299.013C452.573 302.274 449.551 304.882 445.902 306.84C442.249 308.794 437.946 309.771 432.989 309.771C430.814 309.771 428.64 309.58 426.469 309.185C424.295 308.794 422.208 308.163 420.208 307.296C418.205 306.425 416.361 305.319 414.666 303.97C412.97 302.624 411.556 301.035 410.427 299.21H410.165V332.856H395.298V240.521ZM447.206 274.3C447.206 271.259 446.814 268.301 446.031 265.431C445.248 262.561 444.073 260.018 442.511 257.802C440.945 255.586 438.987 253.803 436.642 252.453C434.292 251.108 431.597 250.431 428.552 250.431C422.295 250.431 417.578 252.609 414.404 256.95C411.229 261.303 409.644 267.085 409.644 274.3C409.644 277.691 410.055 280.842 410.884 283.754C411.708 286.67 412.948 289.167 414.601 291.254C416.251 293.341 418.228 294.991 420.535 296.211C422.835 297.427 425.511 298.036 428.552 298.036C431.943 298.036 434.813 297.34 437.162 295.949C439.508 294.557 441.443 292.756 442.967 290.536C444.484 288.319 445.575 285.799 446.225 282.971C446.879 280.146 447.206 277.257 447.206 274.3Z" fill="white"/>
<path d="M359.951 223.054C359.951 226.718 356.982 229.691 353.314 229.691C349.649 229.691 346.677 226.718 346.677 223.054C346.677 219.389 349.649 216.417 353.314 216.417C356.982 216.417 359.951 219.389 359.951 223.054Z" fill="white"/>
<path d="M376.264 223.054C376.264 226.718 373.291 229.691 369.626 229.691C365.962 229.691 362.989 226.718 362.989 223.054C362.989 219.389 365.962 216.417 369.626 216.417C373.291 216.417 376.264 219.389 376.264 223.054Z" fill="white"/>
<path d="M140.387 229.595C136.776 229.595 133.849 226.664 133.849 223.057C133.849 219.446 136.776 216.519 140.387 216.519H162.484C166.096 216.519 169.023 219.446 169.023 223.057C169.023 226.664 166.096 229.595 162.484 229.595H140.387Z" fill="white"/>
</svg>
