<svg width="54" height="54" viewBox="0 0 54 54" fill="none" xmlns="http://www.w3.org/2000/svg">
<path d="M32.7762 53.0372C31.9649 48.5134 32.684 43.8482 34.8192 39.7783L31.9118 38.256L34.5764 35.8996C33.5402 34.4562 32.8422 32.7982 32.5337 31.0484C31.9476 31.4527 31.3343 31.8159 30.6979 32.1355L32.8785 35.3259H28.3344C26.709 39.654 27.2853 41.9508 28.0412 43.832C28.8761 45.9059 29.8178 48.257 27.7359 53.3028C27.6511 53.5083 27.5072 53.684 27.3226 53.8078C27.1379 53.9315 26.9208 53.9978 26.6985 53.9982C26.5138 53.9976 26.3321 53.9516 26.1694 53.8642C26.0067 53.7768 25.8681 53.6507 25.7656 53.497C25.6632 53.3433 25.5998 53.1668 25.5818 52.9829C25.5637 52.7991 25.5914 52.6137 25.662 52.443C27.3975 48.2454 26.7278 46.5898 25.9595 44.6696C25.1601 42.6854 24.413 39.9702 25.9673 35.325H21.0567L23.2121 32.1817C22.5823 31.8749 21.9749 31.5244 21.3941 31.1327C21.0788 32.8509 20.3877 34.4781 19.3701 35.8979L22.0346 38.2542L19.1294 39.7766C21.2658 43.846 21.9864 48.5109 21.1781 53.0354C21.1392 53.3023 21.0059 53.5463 20.8021 53.7231C20.5983 53.8998 20.3376 53.9974 20.0679 53.9982C19.9063 53.9982 19.7469 53.9633 19.5999 53.896C19.453 53.8287 19.3221 53.7305 19.2166 53.6081C19.111 53.4857 19.0334 53.342 18.9884 53.1867C18.9435 53.0315 18.9322 52.8684 18.9559 52.7086C19.6238 48.09 19.0386 44.3054 17.1405 40.8184L13.9282 42.4997L13.6368 38.7836C9.6346 38.8049 4.39945 36.1012 1.46844 29.9905C0.529134 28.0976 0.0280562 26.0176 0.00214592 23.9047C-0.0372341 21.982 0.466084 20.0872 1.45456 18.4377C2.44303 16.7881 3.87661 15.4506 5.59061 14.5787C7.02067 13.8054 8.61792 13.3934 10.2436 13.3788C11.3261 13.3807 12.3999 13.5759 13.4139 13.9552C13.9095 5.68084 19.3212 0 26.9383 0C34.5963 0 40.0292 5.75012 40.468 14.1044C41.7407 13.6033 43.1073 13.3862 44.4726 13.4681C45.838 13.55 47.1691 13.929 48.3728 14.5787C50.0863 15.4509 51.5195 16.7886 52.5075 18.4381C53.4955 20.0876 53.9984 21.9823 53.9586 23.9047C53.9586 31.1372 47.3603 38.7507 40.3205 38.7853L40.0308 42.5015L36.8185 40.8202C34.9169 44.3054 34.3316 48.0944 35.004 52.7103C35.0276 52.8703 35.0161 53.0334 34.971 53.1886C34.9259 53.3438 34.8481 53.4875 34.7425 53.6099C34.6369 53.7322 34.5061 53.8304 34.3591 53.8977C34.2122 53.9651 34.0524 53.9999 33.8907 54C33.62 54.0012 33.3579 53.9044 33.153 53.7274C32.9481 53.5504 32.8143 53.3052 32.7762 53.0372ZM40.4324 16.2822C40.2471 21.3376 38.0744 26.1157 34.3864 29.5784C34.8678 33.8826 36.8096 35.3783 37.4686 36.0462L35.4576 37.8226L38.2449 39.2827L38.4605 36.5294C44.1164 37.3758 48.3932 33.8302 50.6652 29.1032C52.7738 24.7111 52.589 19.0667 47.4286 16.3666C46.3198 15.7718 45.0826 15.4562 43.8243 15.4473C42.644 15.4549 41.4813 15.7409 40.4324 16.2822ZM15.7072 39.2863L18.4979 37.8261L16.4896 36.0497C19.0076 34.0318 19.4464 30.6318 19.5592 29.7081C17.6953 27.9803 16.1939 25.8986 15.143 23.5845C14.092 21.2705 13.5123 18.7703 13.4377 16.2298C12.359 15.6957 11.1669 15.4302 9.96346 15.456C8.75997 15.4818 7.58091 15.7982 6.52607 16.3782C1.36482 19.0827 1.18088 24.7227 3.29121 29.1148C5.51701 33.752 10.4995 37.7231 15.4938 36.5409L15.7072 39.2863ZM15.6105 14.9171C15.6105 16.0575 15.8581 27.8447 26.4994 31.0119L24.9724 33.077H28.9766L27.447 31.0004C37.8744 28.0196 38.2662 15.9607 38.2662 14.8469C38.2662 8.40314 34.7658 2.11299 26.9418 2.11299C19.1178 2.11299 15.6105 8.47597 15.6105 14.9171ZM4.81085 47.4247L1.06988 48.4684L2.23953 44.7611L0.090184 41.5227L3.976 41.489L6.38989 38.4425L7.61852 42.132L11.2597 43.491L8.13721 45.8003L7.97111 49.6834L4.81085 47.4247ZM42.8485 44.1464C42.849 42.9834 43.3109 41.868 44.1331 41.0454C44.9552 40.2227 46.07 39.76 47.233 39.7588C48.3954 39.7609 49.5096 40.2241 50.3309 41.0467C51.1521 41.8693 51.6135 42.9841 51.6137 44.1464C51.613 45.3084 51.1517 46.4227 50.3304 47.2447C49.5092 48.0668 48.395 48.5295 47.233 48.5314C46.0705 48.53 44.9562 48.0674 44.1344 47.2451C43.3126 46.4228 42.8509 45.3081 42.8502 44.1456L42.8485 44.1464ZM26.6165 26.2255C28.2267 24.8 29.5352 23.0663 30.4642 21.1268C31.3932 19.1872 31.9243 17.0812 32.0259 14.9331C32.042 12.0698 30.9834 9.30463 29.0599 7.18365C30.8048 7.86415 32.2973 9.06634 33.3339 10.6263C34.2406 12.0373 34.7183 13.6813 34.7082 15.3585C34.6024 17.7718 33.7745 20.0978 32.3321 22.0355C30.8897 23.9732 28.8989 25.4335 26.6174 26.2273L26.6165 26.2255ZM44.3477 7.48475L41.125 5.66574L44.4115 3.95776L45.1462 0.324186L47.7847 2.9248L51.4628 2.49936L49.8074 5.81496L51.3483 9.18474L47.6845 8.63406L44.9588 11.1396L44.3477 7.48475ZM46.0031 5.15681L44.8981 5.73058L45.981 6.34254L46.1861 7.56913L47.099 6.72979L48.332 6.91187L47.8125 5.78032L48.3684 4.66831L47.1329 4.81042L46.2447 3.93911L46.0031 5.15681ZM2.97592 4.66831C2.97663 3.56929 3.41284 2.5154 4.18938 1.73769C4.96591 0.959989 6.01947 0.52194 7.11848 0.519589C8.21734 0.522174 9.27038 0.960327 10.0467 1.73801C10.8231 2.51569 11.259 3.56944 11.2597 4.66831C11.259 5.76701 10.8227 6.82059 10.0463 7.59798C9.26989 8.37538 8.21718 8.81314 7.11848 8.81526C6.01932 8.81314 4.96585 8.37501 4.18938 7.59704C3.4129 6.81907 2.97679 5.76481 2.97679 4.66564L2.97592 4.66831ZM4.9982 4.66831C4.99843 5.23044 5.2221 5.76947 5.61967 6.16687C6.01724 6.56428 6.55635 6.78752 7.11848 6.78752C7.68038 6.78729 8.21919 6.56391 8.61643 6.16651C9.01367 5.7691 9.2366 5.2302 9.2366 4.66831C9.23707 4.10594 9.0141 3.56641 8.61687 3.16834C8.21963 2.77027 7.68085 2.54625 7.11848 2.54554C6.55641 2.54625 6.01755 2.76984 5.6201 3.16728C5.22266 3.56473 4.9989 4.10358 4.9982 4.66564V4.66831Z" fill="#95BA32"/>
</svg>
