<svg width="35" height="112" viewBox="0 0 35 112" fill="none" xmlns="http://www.w3.org/2000/svg">
<path d="M2.73452 110.833C2.73977 110.826 2.74744 110.818 2.75294 110.812C6.50746 110.129 10.2479 108.486 13.7009 106.943C15.5806 106.104 17.4354 105.214 19.2653 104.273C20.8866 103.44 23.166 102.675 23.9796 100.966C24.4089 100.067 22.8659 99.3965 21.8426 99.424L21.839 99.4175C21.8249 99.4193 21.8121 99.4234 21.7981 99.4251C21.6335 99.4324 21.4831 99.4597 21.3594 99.5081C19.7055 99.859 18.3619 100.819 16.8671 101.657C15.1015 102.649 13.3194 103.605 11.506 104.504C9.71138 105.394 7.90237 106.264 6.08352 107.104C6.01879 107.134 5.95302 107.162 5.88817 107.192C10.2294 102.185 14.4982 97.1884 18.2251 91.6434C22.5955 85.1411 26.3683 78.2069 29.235 70.9091C35.1268 55.904 36.8513 39.3005 32.7936 23.5894C30.586 15.0502 26.6848 7.12161 21.0669 0.310279C20.6469 -0.197511 19.1287 -0.0905321 19.7443 0.694152C29.4595 13.0886 33.4166 29.1505 32.5006 44.7195C31.5652 60.5524 25.5326 75.6783 16.9193 88.864C13.2077 94.5453 9.04565 100.196 4.39303 105.26C6.02614 98.3169 6.3686 91.0489 5.61094 83.9687C5.85811 83.8389 5.98763 83.5892 5.84789 83.1633C5.6773 82.6491 5.53835 82.2192 5.27488 81.7439C4.73848 80.7816 1.30303 79.8086 1.60469 81.6725C3.14148 91.1468 2.42731 100.536 0.027968 109.801C-0.280694 110.993 2.06732 111.606 2.73452 110.833Z" fill="#2E2E2E"/>
</svg>
