<svg width="358" height="60" viewBox="0 0 358 60" fill="none" xmlns="http://www.w3.org/2000/svg">
<g clip-path="url(#clip0_513_10708)">
<path d="M0.000976562 4.15527L7.9312 57.0393L17.9318 55.5397L14.4887 32.5788L31.1583 30.0791L29.8477 21.3395L13.1781 23.8392L11.3121 11.3952L29.0233 8.73933L27.7127 -0.000244951L0.000976562 4.15527Z" fill="#FCBE00"/>
<path d="M45.7253 29.2817C46.1271 26.4656 46.5355 24.0896 46.9516 22.153C47.3676 20.2174 47.8705 18.6521 48.459 17.46C49.0486 16.267 49.7654 15.4412 50.6082 14.9824C51.4519 14.5247 52.5 14.3847 53.7517 14.5633C55.0033 14.7418 55.9695 15.1692 56.6515 15.8446C57.3334 16.5209 57.7895 17.5141 58.022 18.8243C58.2546 20.1336 58.2989 21.777 58.157 23.7517C58.0149 25.7274 57.7434 28.1229 57.3417 30.9391C56.9399 33.7552 56.5292 36.1407 56.1105 38.0958C55.6916 40.0518 55.1897 41.6163 54.6028 42.7898C54.016 43.9633 53.3017 44.7796 52.4581 45.2373C51.6143 45.6959 50.5671 45.836 49.3154 45.6575C48.0638 45.4789 47.0966 45.0514 46.4147 44.3751C45.7337 43.6998 45.2751 42.7163 45.0399 41.4254C44.8056 40.1348 44.7603 38.4922 44.9052 36.4971C45.0499 34.5029 45.3235 32.0979 45.7253 29.2817ZM37.2769 28.0764C36.8194 31.2832 36.5476 34.2378 36.4616 36.9394C36.3756 39.641 36.6944 42.0205 37.4181 44.079C38.1415 46.1386 39.3705 47.8101 41.1029 49.0945C42.8342 50.3796 45.2855 51.2479 48.4534 51.6999C51.6213 52.1518 54.2164 52.0035 56.239 51.2539C58.2615 50.5053 59.9079 49.244 61.1785 47.469C62.4499 45.695 63.4215 43.4996 64.0944 40.8818C64.7664 38.2638 65.3316 35.351 65.7891 32.1443C66.2411 28.9763 66.5116 26.0314 66.6013 23.3105C66.6901 20.5895 66.3727 18.1993 65.6481 16.1406C64.9245 14.082 63.7008 12.3805 61.9768 11.0369C60.2527 9.69429 57.8069 8.79602 54.639 8.34406C51.471 7.89209 48.8705 8.07038 46.8407 8.87743C44.8098 9.68531 43.1581 10.9766 41.8877 12.7507C40.6173 14.5247 39.6442 16.7309 38.9685 19.3682C38.2928 22.0054 37.7289 24.9085 37.2769 28.0764Z" fill="#005EBE"/>
<path d="M72.5786 9.83643L79.0458 51.652L87.4795 50.3476L84.744 32.6604L89.2539 31.9629C91.0106 31.6912 92.3326 31.9666 93.2196 32.7889C94.1057 33.6113 94.7152 34.8361 95.0475 36.4643L96.5221 44.4515C96.6877 45.2652 96.8886 46.0437 97.1228 46.7872C97.3579 47.5305 97.7356 48.1615 98.2559 48.6809L107.392 47.2679L107.338 46.9168C106.49 46.6078 105.859 45.8859 105.443 44.7514C105.106 43.6037 104.726 41.9233 104.304 39.71C104.09 38.5839 103.892 37.5647 103.711 36.653C103.531 35.7423 103.341 34.9016 103.142 34.1328C102.545 31.8263 101.677 30.2213 100.539 29.3188C99.3987 28.4154 97.7516 27.9708 95.5944 27.9846L95.5762 27.8673C97.8792 26.9916 99.4594 25.5772 100.318 23.6258C101.175 21.6745 101.386 19.2928 100.951 16.4815C100.389 12.8506 98.9954 10.298 96.7689 8.82367C94.5413 7.34852 91.6713 6.88355 88.1578 7.42695L72.5786 9.83643ZM83.8383 26.8042L81.9723 14.7395L85.9544 14.1236C89.8589 13.5197 92.1106 15.1501 92.7085 19.0158C93.0588 21.2809 92.7607 22.9758 91.8154 24.1014C90.87 25.2269 89.3822 25.9467 87.3519 26.2607L83.8383 26.8042Z" fill="#FD305F"/>
<path d="M145.177 8.07617H118.153V15.069H127.398V50.3888H135.932V15.069H145.177V8.07617Z" fill="#00C6DC"/>
<path d="M146.546 16.0947L157.115 57.0674L165.377 54.9362L160.685 36.7457L170.326 34.259L175.018 52.4495L183.282 50.318L172.713 9.34538L164.45 11.4768L168.491 27.1428L158.85 29.6295L154.809 13.9635L146.546 16.0947Z" fill="#FCBE00"/>
<path d="M214.343 8.19434H190.697V50.508H214.936V43.515H199.231V32.1364H213.454V25.1435H199.231V15.1872H214.343V8.19434Z" fill="#FD305F"/>
<path d="M243.184 6.02769L232.49 6.7793L236.216 59.8039L246.911 59.0523L245.804 43.308L249.317 37.0163L261.763 58.0085L273.794 57.1629L255.624 27.9905L268.434 4.25321L256.849 5.06737L244.825 27.2567L244.677 27.2671L243.184 6.02769Z" fill="#FCBE00"/>
<path d="M284.371 8.19434H275.837V50.507H284.371V8.19434Z" fill="#005EBE"/>
<path d="M304.251 44.7206L300.771 15.1748L304.361 14.7518C305.97 14.5623 307.29 14.7152 308.324 15.2101C309.357 15.7052 310.189 16.5224 310.82 17.6608C311.451 18.8002 311.952 20.2624 312.321 22.0493C312.691 23.8353 313.017 25.9248 313.299 28.319C313.637 31.1831 313.83 33.5869 313.88 35.53C313.93 37.4732 313.76 39.0649 313.369 40.3048C312.977 41.544 312.361 42.4715 311.519 43.0887C310.676 43.7049 309.51 44.1012 308.018 44.2769L304.251 44.7206ZM291.562 9.93506L296.512 51.9571L309.871 50.3833C312.696 50.0505 314.98 49.3436 316.723 48.2635C318.465 47.1826 319.782 45.6951 320.673 43.8002C321.563 41.9053 322.074 39.567 322.203 36.7873C322.333 34.0074 322.181 30.7735 321.747 27.0847C321.382 23.9846 320.875 21.2008 320.225 18.7312C319.576 16.2616 318.647 14.1927 317.435 12.5257C316.225 10.8586 314.66 9.65028 312.742 8.90165C310.824 8.15313 308.393 7.95218 305.451 8.29877L291.562 9.93506Z" fill="#FD305F"/>
<path d="M332.848 41.3623L323.245 39.5421L322.925 41.2308C322.196 45.073 322.804 48.2444 324.749 50.744C326.693 53.2435 330.378 55.0079 335.802 56.036C341.004 57.022 345.251 56.7918 348.542 55.3446C351.834 53.8974 353.895 50.9812 354.727 46.594C354.969 45.3133 355.056 44.1238 354.988 43.025C354.92 41.926 354.624 40.8748 354.101 39.8715C353.577 38.867 352.809 37.8773 351.796 36.9011C350.783 35.9248 349.432 34.9145 347.741 33.8706L340.868 29.6725C338.963 28.5472 337.781 27.4889 337.324 26.4972C336.868 25.5065 336.76 24.3703 337.003 23.0895C337.121 22.4684 337.312 21.8812 337.579 21.3283C337.844 20.7752 338.231 20.3161 338.738 19.9496C339.245 19.5831 339.88 19.3318 340.643 19.1946C341.406 19.0585 342.321 19.091 343.388 19.2934C345.255 19.6473 346.488 20.4334 347.086 21.6527C347.684 22.8721 347.796 24.4717 347.421 26.4507L356.624 28.1951L356.845 27.0311C357.22 25.0511 357.176 23.2833 356.71 21.7274C356.245 20.1716 355.443 18.8138 354.304 17.6528C353.166 16.4919 351.734 15.5372 350.011 14.788C348.287 14.0397 346.359 13.4623 344.225 13.0578C339.644 12.1897 335.852 12.5169 332.846 14.0383C329.84 15.5596 327.947 18.3767 327.167 22.4919C326.843 24.1999 326.803 25.7499 327.045 27.1436C327.288 28.5363 327.839 29.8266 328.695 31.015C329.552 32.2025 330.69 33.3122 332.106 34.345C333.522 35.3777 335.239 36.4065 337.255 37.4319C338.768 38.2012 340.027 38.9124 341.031 39.5653C342.036 40.2184 342.82 40.8794 343.384 41.5499C343.948 42.2193 344.31 42.9213 344.471 43.6551C344.63 44.3897 344.622 45.2223 344.446 46.154C344.115 47.9006 343.281 49.0793 341.945 49.6913C340.608 50.3021 339.206 50.4689 337.739 50.1909C336.494 49.9549 335.49 49.6037 334.726 49.1372C333.962 48.6708 333.387 48.1192 333.001 47.4826C332.615 46.847 332.408 46.1144 332.382 45.2851C332.354 44.4547 332.433 43.5554 332.617 42.5852L332.848 41.3623Z" fill="#00C6DC"/>
</g>
<defs>
<clipPath id="clip0_513_10708">
<rect width="357.423" height="60" fill="white"/>
</clipPath>
</defs>
</svg>
